<svg width="1000" height="300" xmlns="http://www.w3.org/2000/svg" xmlns:xlink="http://www.w3.org/1999/xlink" version="1.1" baseProfile="full" viewBox="0 0 1000 300">
<rect width="1000" height="300" x="0" y="0" id="0" fill="#ffffff"></rect>
<path d="M68.2 271.5L921.8 271.5" fill="none" stroke="#E0E6F1"></path>
<path d="M68.2 226.5L921.8 226.5" fill="none" stroke="#E0E6F1"></path>
<path d="M68.2 182.5L921.8 182.5" fill="none" stroke="#E0E6F1"></path>
<path d="M68.2 137.5L921.8 137.5" fill="none" stroke="#E0E6F1"></path>
<path d="M68.2 93.5L921.8 93.5" fill="none" stroke="#E0E6F1"></path>
<path d="M68.2 60.5L921.8 60.5" fill="none" stroke="#E0E6F1"></path>
<path d="M68.2 271.5L921.8 271.5" fill="none" stroke="#6E7079" stroke-linecap="round"></path>
<path d="M70.5 271L70.5 276" fill="none" stroke="#6E7079"></path>
<path d="M120.5 271L120.5 276" fill="none" stroke="#6E7079"></path>
<path d="M169.5 271L169.5 276" fill="none" stroke="#6E7079"></path>
<path d="M218.5 271L218.5 276" fill="none" stroke="#6E7079"></path>
<path d="M268.5 271L268.5 276" fill="none" stroke="#6E7079"></path>
<path d="M317.5 271L317.5 276" fill="none" stroke="#6E7079"></path>
<path d="M366.5 271L366.5 276" fill="none" stroke="#6E7079"></path>
<path d="M416.5 271L416.5 276" fill="none" stroke="#6E7079"></path>
<path d="M465.5 271L465.5 276" fill="none" stroke="#6E7079"></path>
<path d="M514.5 271L514.5 276" fill="none" stroke="#6E7079"></path>
<path d="M564.5 271L564.5 276" fill="none" stroke="#6E7079"></path>
<path d="M613.5 271L613.5 276" fill="none" stroke="#6E7079"></path>
<path d="M662.5 271L662.5 276" fill="none" stroke="#6E7079"></path>
<path d="M712.5 271L712.5 276" fill="none" stroke="#6E7079"></path>
<path d="M761.5 271L761.5 276" fill="none" stroke="#6E7079"></path>
<path d="M811.5 271L811.5 276" fill="none" stroke="#6E7079"></path>
<path d="M860.5 271L860.5 276" fill="none" stroke="#6E7079"></path>
<path d="M909.5 271L909.5 276" fill="none" stroke="#6E7079"></path>
<text dominant-baseline="central" text-anchor="end" style="font-size:12px;font-family:sans-serif;" transform="translate(60.24 271)" fill="#6E7079">0</text>
<text dominant-baseline="central" text-anchor="end" style="font-size:12px;font-family:sans-serif;" transform="translate(60.24 226.5789)" fill="#6E7079">240</text>
<text dominant-baseline="central" text-anchor="end" style="font-size:12px;font-family:sans-serif;" transform="translate(60.24 182.1579)" fill="#6E7079">480</text>
<text dominant-baseline="central" text-anchor="end" style="font-size:12px;font-family:sans-serif;" transform="translate(60.24 137.7368)" fill="#6E7079">720</text>
<text dominant-baseline="central" text-anchor="end" style="font-size:12px;font-family:sans-serif;" transform="translate(60.24 93.3158)" fill="#6E7079">960</text>
<text dominant-baseline="central" text-anchor="end" style="font-size:12px;font-family:sans-serif;" transform="translate(60.24 60)" fill="#6E7079">1,140</text>
<text dominant-baseline="central" text-anchor="start" style="font-size:12px;font-family:sans-serif;" transform="translate(929.76 271)" fill="#6E7079">0</text>
<text dominant-baseline="central" text-anchor="start" style="font-size:12px;font-family:sans-serif;" transform="translate(929.76 226.5789)" fill="#6E7079">240</text>
<text dominant-baseline="central" text-anchor="start" style="font-size:12px;font-family:sans-serif;" transform="translate(929.76 182.1579)" fill="#6E7079">480</text>
<text dominant-baseline="central" text-anchor="start" style="font-size:12px;font-family:sans-serif;" transform="translate(929.76 137.7368)" fill="#6E7079">720</text>
<text dominant-baseline="central" text-anchor="start" style="font-size:12px;font-family:sans-serif;" transform="translate(929.76 93.3158)" fill="#6E7079">960</text>
<text dominant-baseline="central" text-anchor="start" style="font-size:12px;font-family:sans-serif;" transform="translate(929.76 60)" fill="#6E7079">1,140</text>
<text dominant-baseline="central" text-anchor="middle" style="font-size:12px;font-family:sans-serif;" y="6" transform="translate(70.7068 279)" fill="#6E7079">1km</text>
<text dominant-baseline="central" text-anchor="middle" style="font-size:12px;font-family:sans-serif;" y="6" transform="translate(120.0432 279)" fill="#6E7079">11km</text>
<text dominant-baseline="central" text-anchor="middle" style="font-size:12px;font-family:sans-serif;" y="6" transform="translate(169.3797 279)" fill="#6E7079">21km</text>
<text dominant-baseline="central" text-anchor="middle" style="font-size:12px;font-family:sans-serif;" y="6" transform="translate(218.7161 279)" fill="#6E7079">31km</text>
<text dominant-baseline="central" text-anchor="middle" style="font-size:12px;font-family:sans-serif;" y="6" transform="translate(268.0525 279)" fill="#6E7079">41km</text>
<text dominant-baseline="central" text-anchor="middle" style="font-size:12px;font-family:sans-serif;" y="6" transform="translate(317.3889 279)" fill="#6E7079">51km</text>
<text dominant-baseline="central" text-anchor="middle" style="font-size:12px;font-family:sans-serif;" y="6" transform="translate(366.7253 279)" fill="#6E7079">61km</text>
<text dominant-baseline="central" text-anchor="middle" style="font-size:12px;font-family:sans-serif;" y="6" transform="translate(416.0617 279)" fill="#6E7079">71km</text>
<text dominant-baseline="central" text-anchor="middle" style="font-size:12px;font-family:sans-serif;" y="6" transform="translate(465.3982 279)" fill="#6E7079">81km</text>
<text dominant-baseline="central" text-anchor="middle" style="font-size:12px;font-family:sans-serif;" y="6" transform="translate(514.7346 279)" fill="#6E7079">91km</text>
<text dominant-baseline="central" text-anchor="middle" style="font-size:12px;font-family:sans-serif;" y="6" transform="translate(564.071 279)" fill="#6E7079">101km</text>
<text dominant-baseline="central" text-anchor="middle" style="font-size:12px;font-family:sans-serif;" y="6" transform="translate(613.4074 279)" fill="#6E7079">111km</text>
<text dominant-baseline="central" text-anchor="middle" style="font-size:12px;font-family:sans-serif;" y="6" transform="translate(662.7438 279)" fill="#6E7079">121km</text>
<text dominant-baseline="central" text-anchor="middle" style="font-size:12px;font-family:sans-serif;" y="6" transform="translate(712.0802 279)" fill="#6E7079">131km</text>
<text dominant-baseline="central" text-anchor="middle" style="font-size:12px;font-family:sans-serif;" y="6" transform="translate(761.4166 279)" fill="#6E7079">141km</text>
<text dominant-baseline="central" text-anchor="middle" style="font-size:12px;font-family:sans-serif;" y="6" transform="translate(810.7531 279)" fill="#6E7079">151km</text>
<text dominant-baseline="central" text-anchor="middle" style="font-size:12px;font-family:sans-serif;" y="6" transform="translate(860.0895 279)" fill="#6E7079">161km</text>
<text dominant-baseline="central" text-anchor="middle" style="font-size:12px;font-family:sans-serif;" y="6" transform="translate(909.4259 279)" fill="#6E7079">171km</text>
<path d="M69 271l3.4 0l0 -208.6l-3.4 0Z" fill="rgb(227,73,2)" fill-opacity="0.3"></path>
<path d="M73.9 271l3.4 0l0 -208.2l-3.4 0Z" fill="rgb(227,73,2)" fill-opacity="0.3"></path>
<path d="M78.9 271l3.4 0l0 -208l-3.4 0Z" fill="rgb(227,73,2)" fill-opacity="0.3"></path>
<path d="M83.8 271l3.4 0l0 -207.9l-3.4 0Z" fill="rgb(227,73,2)" fill-opacity="0.3"></path>
<path d="M88.7 271l3.4 0l0 -207.1l-3.4 0Z" fill="rgb(227,73,2)" fill-opacity="0.3"></path>
<path d="M93.7 271l3.4 0l0 -206.9l-3.4 0Z" fill="rgb(227,73,2)" fill-opacity="0.3"></path>
<path d="M98.6 271l3.4 0l0 -206.6l-3.4 0Z" fill="rgb(227,73,2)" fill-opacity="0.3"></path>
<path d="M103.5 271l3.4 0l0 -205.4l-3.4 0Z" fill="rgb(227,73,2)" fill-opacity="0.3"></path>
<path d="M108.5 271l3.4 0l0 -204.9l-3.4 0Z" fill="rgb(227,73,2)" fill-opacity="0.3"></path>
<path d="M113.4 271l3.4 0l0 -204.5l-3.4 0Z" fill="rgb(227,73,2)" fill-opacity="0.3"></path>
<path d="M118.3 271l3.4 0l0 -204.2l-3.4 0Z" fill="rgb(227,73,2)" fill-opacity="0.3"></path>
<path d="M123.3 271l3.4 0l0 -203.8l-3.4 0Z" fill="rgb(227,73,2)" fill-opacity="0.3"></path>
<path d="M128.2 271l3.4 0l0 -203l-3.4 0Z" fill="rgb(227,73,2)" fill-opacity="0.3"></path>
<path d="M133.1 271l3.4 0l0 -202.3l-3.4 0Z" fill="rgb(227,73,2)" fill-opacity="0.3"></path>
<path d="M138.1 271l3.4 0l0 -201.4l-3.4 0Z" fill="rgb(227,73,2)" fill-opacity="0.3"></path>
<path d="M143 271l3.4 0l0 -199.9l-3.4 0Z" fill="rgb(227,73,2)" fill-opacity="0.3"></path>
<path d="M147.9 271l3.4 0l0 -198.4l-3.4 0Z" fill="rgb(227,73,2)" fill-opacity="0.3"></path>
<path d="M152.9 271l3.4 0l0 -197.1l-3.4 0Z" fill="rgb(227,73,2)" fill-opacity="0.3"></path>
<path d="M157.8 271l3.4 0l0 -193.8l-3.4 0Z" fill="rgb(227,73,2)" fill-opacity="0.3"></path>
<path d="M162.7 271l3.4 0l0 -191.9l-3.4 0Z" fill="rgb(227,73,2)" fill-opacity="0.3"></path>
<path d="M167.7 271l3.4 0l0 -188.8l-3.4 0Z" fill="rgb(227,73,2)" fill-opacity="0.3"></path>
<path d="M172.6 271l3.4 0l0 -184.2l-3.4 0Z" fill="rgb(227,73,2)" fill-opacity="0.3"></path>
<path d="M177.5 271l3.4 0l0 -180.6l-3.4 0Z" fill="rgb(227,73,2)" fill-opacity="0.3"></path>
<path d="M182.5 271l3.4 0l0 -176.2l-3.4 0Z" fill="rgb(227,73,2)" fill-opacity="0.3"></path>
<path d="M187.4 271l3.4 0l0 -171.2l-3.4 0Z" fill="rgb(227,73,2)" fill-opacity="0.3"></path>
<path d="M192.3 271l3.4 0l0 -165.7l-3.4 0Z" fill="rgb(227,73,2)" fill-opacity="0.3"></path>
<path d="M197.3 271l3.4 0l0 -160.8l-3.4 0Z" fill="rgb(227,73,2)" fill-opacity="0.3"></path>
<path d="M202.2 271l3.4 0l0 -155.7l-3.4 0Z" fill="rgb(227,73,2)" fill-opacity="0.3"></path>
<path d="M207.1 271l3.4 0l0 -150.5l-3.4 0Z" fill="rgb(227,73,2)" fill-opacity="0.3"></path>
<path d="M212.1 271l3.4 0l0 -146.8l-3.4 0Z" fill="rgb(227,73,2)" fill-opacity="0.3"></path>
<path d="M217 271l3.4 0l0 -140.7l-3.4 0Z" fill="rgb(227,73,2)" fill-opacity="0.3"></path>
<path d="M221.9 271l3.4 0l0 -135.7l-3.4 0Z" fill="rgb(227,73,2)" fill-opacity="0.3"></path>
<path d="M226.9 271l3.4 0l0 -131.4l-3.4 0Z" fill="rgb(227,73,2)" fill-opacity="0.3"></path>
<path d="M231.8 271l3.4 0l0 -127.7l-3.4 0Z" fill="rgb(227,73,2)" fill-opacity="0.3"></path>
<path d="M236.7 271l3.4 0l0 -125.3l-3.4 0Z" fill="rgb(227,73,2)" fill-opacity="0.3"></path>
<path d="M241.7 271l3.4 0l0 -120.5l-3.4 0Z" fill="rgb(227,73,2)" fill-opacity="0.3"></path>
<path d="M246.6 271l3.4 0l0 -116.2l-3.4 0Z" fill="rgb(227,73,2)" fill-opacity="0.3"></path>
<path d="M251.5 271l3.4 0l0 -112.7l-3.4 0Z" fill="rgb(227,73,2)" fill-opacity="0.3"></path>
<path d="M256.5 271l3.4 0l0 -110.7l-3.4 0Z" fill="rgb(227,73,2)" fill-opacity="0.3"></path>
<path d="M261.4 271l3.4 0l0 -106.8l-3.4 0Z" fill="rgb(227,73,2)" fill-opacity="0.3"></path>
<path d="M266.4 271l3.4 0l0 -103.8l-3.4 0Z" fill="rgb(227,73,2)" fill-opacity="0.3"></path>
<path d="M271.3 271l3.4 0l0 -100.1l-3.4 0Z" fill="rgb(227,73,2)" fill-opacity="0.3"></path>
<path d="M276.2 271l3.4 0l0 -95.7l-3.4 0Z" fill="rgb(227,73,2)" fill-opacity="0.3"></path>
<path d="M281.2 271l3.4 0l0 -91.8l-3.4 0Z" fill="rgb(227,73,2)" fill-opacity="0.3"></path>
<path d="M286.1 271l3.4 0l0 -88.1l-3.4 0Z" fill="rgb(227,73,2)" fill-opacity="0.3"></path>
<path d="M291 271l3.4 0l0 -84.2l-3.4 0Z" fill="rgb(227,73,2)" fill-opacity="0.3"></path>
<path d="M296 271l3.4 0l0 -81.1l-3.4 0Z" fill="rgb(227,73,2)" fill-opacity="0.3"></path>
<path d="M300.9 271l3.4 0l0 -77.9l-3.4 0Z" fill="rgb(227,73,2)" fill-opacity="0.3"></path>
<path d="M305.8 271l3.4 0l0 -75.1l-3.4 0Z" fill="rgb(227,73,2)" fill-opacity="0.3"></path>
<path d="M310.8 271l3.4 0l0 -72.6l-3.4 0Z" fill="rgb(227,73,2)" fill-opacity="0.3"></path>
<path d="M315.7 271l3.4 0l0 -69.6l-3.4 0Z" fill="rgb(227,73,2)" fill-opacity="0.3"></path>
<path d="M320.6 271l3.4 0l0 -67.9l-3.4 0Z" fill="rgb(227,73,2)" fill-opacity="0.3"></path>
<path d="M325.6 271l3.4 0l0 -66.3l-3.4 0Z" fill="rgb(227,73,2)" fill-opacity="0.3"></path>
<path d="M330.5 271l3.4 0l0 -63.3l-3.4 0Z" fill="rgb(227,73,2)" fill-opacity="0.3"></path>
<path d="M335.4 271l3.4 0l0 -60.7l-3.4 0Z" fill="rgb(227,73,2)" fill-opacity="0.3"></path>
<path d="M340.4 271l3.4 0l0 -58.5l-3.4 0Z" fill="rgb(227,73,2)" fill-opacity="0.3"></path>
<path d="M345.3 271l3.4 0l0 -55.7l-3.4 0Z" fill="rgb(227,73,2)" fill-opacity="0.3"></path>
<path d="M350.2 271l3.4 0l0 -54.2l-3.4 0Z" fill="rgb(227,73,2)" fill-opacity="0.3"></path>
<path d="M355.2 271l3.4 0l0 -52.9l-3.4 0Z" fill="rgb(227,73,2)" fill-opacity="0.3"></path>
<path d="M360.1 271l3.4 0l0 -51.8l-3.4 0Z" fill="rgb(227,73,2)" fill-opacity="0.3"></path>
<path d="M365 271l3.4 0l0 -48.9l-3.4 0Z" fill="rgb(227,73,2)" fill-opacity="0.3"></path>
<path d="M370 271l3.4 0l0 -47l-3.4 0Z" fill="rgb(227,73,2)" fill-opacity="0.3"></path>
<path d="M374.9 271l3.4 0l0 -44.6l-3.4 0Z" fill="rgb(227,73,2)" fill-opacity="0.3"></path>
<path d="M379.8 271l3.4 0l0 -43.3l-3.4 0Z" fill="rgb(227,73,2)" fill-opacity="0.3"></path>
<path d="M384.8 271l3.4 0l0 -42.2l-3.4 0Z" fill="rgb(227,73,2)" fill-opacity="0.3"></path>
<path d="M389.7 271l3.4 0l0 -40.3l-3.4 0Z" fill="rgb(227,73,2)" fill-opacity="0.3"></path>
<path d="M394.6 271l3.4 0l0 -39.1l-3.4 0Z" fill="rgb(227,73,2)" fill-opacity="0.3"></path>
<path d="M399.6 271l3.4 0l0 -36.8l-3.4 0Z" fill="rgb(227,73,2)" fill-opacity="0.3"></path>
<path d="M404.5 271l3.4 0l0 -35.5l-3.4 0Z" fill="rgb(227,73,2)" fill-opacity="0.3"></path>
<path d="M409.4 271l3.4 0l0 -33.9l-3.4 0Z" fill="rgb(227,73,2)" fill-opacity="0.3"></path>
<path d="M414.4 271l3.4 0l0 -32.2l-3.4 0Z" fill="rgb(227,73,2)" fill-opacity="0.3"></path>
<path d="M419.3 271l3.4 0l0 -30.5l-3.4 0Z" fill="rgb(227,73,2)" fill-opacity="0.3"></path>
<path d="M424.2 271l3.4 0l0 -30l-3.4 0Z" fill="rgb(227,73,2)" fill-opacity="0.3"></path>
<path d="M429.2 271l3.4 0l0 -28.9l-3.4 0Z" fill="rgb(227,73,2)" fill-opacity="0.3"></path>
<path d="M434.1 271l3.4 0l0 -27.9l-3.4 0Z" fill="rgb(227,73,2)" fill-opacity="0.3"></path>
<path d="M439 271l3.4 0l0 -26.3l-3.4 0Z" fill="rgb(227,73,2)" fill-opacity="0.3"></path>
<path d="M444 271l3.4 0l0 -25l-3.4 0Z" fill="rgb(227,73,2)" fill-opacity="0.3"></path>
<path d="M448.9 271l3.4 0l0 -24.8l-3.4 0Z" fill="rgb(227,73,2)" fill-opacity="0.3"></path>
<path d="M453.8 271l3.4 0l0 -24.2l-3.4 0Z" fill="rgb(227,73,2)" fill-opacity="0.3"></path>
<path d="M458.8 271l3.4 0l0 -23.1l-3.4 0Z" fill="rgb(227,73,2)" fill-opacity="0.3"></path>
<path d="M463.7 271l3.4 0l0 -22l-3.4 0Z" fill="rgb(227,73,2)" fill-opacity="0.3"></path>
<path d="M468.6 271l3.4 0l0 -20.7l-3.4 0Z" fill="rgb(227,73,2)" fill-opacity="0.3"></path>
<path d="M473.6 271l3.4 0l0 -20.5l-3.4 0Z" fill="rgb(227,73,2)" fill-opacity="0.3"></path>
<path d="M478.5 271l3.4 0l0 -20.2l-3.4 0Z" fill="rgb(227,73,2)" fill-opacity="0.3"></path>
<path d="M483.4 271l3.4 0l0 -19.6l-3.4 0Z" fill="rgb(227,73,2)" fill-opacity="0.3"></path>
<path d="M488.4 271l3.4 0l0 -19.1l-3.4 0Z" fill="rgb(227,73,2)" fill-opacity="0.3"></path>
<path d="M493.3 271l3.4 0l0 -18.3l-3.4 0Z" fill="rgb(227,73,2)" fill-opacity="0.3"></path>
<path d="M498.2 271l3.4 0l0 -17.8l-3.4 0Z" fill="rgb(227,73,2)" fill-opacity="0.3"></path>
<path d="M503.2 271l3.4 0l0 -16.8l-3.4 0Z" fill="rgb(227,73,2)" fill-opacity="0.8"></path>
<path d="M508.1 271l3.4 0l0 -16.5l-3.4 0Z" fill="rgb(227,73,2)" fill-opacity="0.3"></path>
<path d="M513 271l3.4 0l0 -15.9l-3.4 0Z" fill="rgb(227,73,2)" fill-opacity="0.3"></path>
<path d="M518 271l3.4 0l0 -15.4l-3.4 0Z" fill="rgb(227,73,2)" fill-opacity="0.3"></path>
<path d="M522.9 271l3.4 0l0 -14.8l-3.4 0Z" fill="rgb(227,73,2)" fill-opacity="0.3"></path>
<path d="M527.8 271l3.4 0l0 -13.9l-3.4 0Z" fill="rgb(227,73,2)" fill-opacity="0.3"></path>
<path d="M532.8 271l3.4 0l0 -13.5l-3.4 0Z" fill="rgb(227,73,2)" fill-opacity="0.3"></path>
<path d="M537.7 271l3.4 0l0 -13.3l-3.4 0Z" fill="rgb(227,73,2)" fill-opacity="0.3"></path>
<path d="M542.6 271l3.4 0l0 -13l-3.4 0Z" fill="rgb(227,73,2)" fill-opacity="0.3"></path>
<path d="M547.6 271l3.4 0l0 -12.8l-3.4 0Z" fill="rgb(227,73,2)" fill-opacity="0.3"></path>
<path d="M552.5 271l3.4 0l0 -12.2l-3.4 0Z" fill="rgb(227,73,2)" fill-opacity="0.3"></path>
<path d="M557.4 271l3.4 0l0 -11.7l-3.4 0Z" fill="rgb(227,73,2)" fill-opacity="0.3"></path>
<path d="M562.4 271l3.4 0l0 -11.1l-3.4 0Z" fill="rgb(227,73,2)" fill-opacity="0.3"></path>
<path d="M567.3 271l3.4 0l0 -10.4l-3.4 0Z" fill="rgb(227,73,2)" fill-opacity="0.3"></path>
<path d="M572.2 271l3.4 0l0 -10l-3.4 0Z" fill="rgb(227,73,2)" fill-opacity="0.3"></path>
<path d="M577.2 271l3.4 0l0 -9.8l-3.4 0Z" fill="rgb(227,73,2)" fill-opacity="0.3"></path>
<path d="M582.1 271l3.4 0l0 -9.4l-3.4 0Z" fill="rgb(227,73,2)" fill-opacity="0.3"></path>
<path d="M587 271l3.4 0l0 -8.9l-3.4 0Z" fill="rgb(227,73,2)" fill-opacity="0.3"></path>
<path d="M592 271l3.4 0l0 -8.5l-3.4 0Z" fill="rgb(227,73,2)" fill-opacity="0.3"></path>
<path d="M596.9 271l3.4 0l0 -8.3l-3.4 0Z" fill="rgb(227,73,2)" fill-opacity="0.3"></path>
<path d="M601.8 271l3.4 0l0 -8.3l-3.4 0Z" fill="rgb(227,73,2)" fill-opacity="0.3"></path>
<path d="M606.8 271l3.4 0l0 -8.1l-3.4 0Z" fill="rgb(227,73,2)" fill-opacity="0.3"></path>
<path d="M611.7 271l3.4 0l0 -7.6l-3.4 0Z" fill="rgb(227,73,2)" fill-opacity="0.3"></path>
<path d="M616.6 271l3.4 0l0 -7.6l-3.4 0Z" fill="rgb(227,73,2)" fill-opacity="0.3"></path>
<path d="M621.6 271l3.4 0l0 -7.6l-3.4 0Z" fill="rgb(227,73,2)" fill-opacity="0.3"></path>
<path d="M626.5 271l3.4 0l0 -7.2l-3.4 0Z" fill="rgb(227,73,2)" fill-opacity="0.3"></path>
<path d="M631.4 271l3.4 0l0 -7l-3.4 0Z" fill="rgb(227,73,2)" fill-opacity="0.3"></path>
<path d="M636.4 271l3.4 0l0 -7l-3.4 0Z" fill="rgb(227,73,2)" fill-opacity="0.3"></path>
<path d="M641.3 271l3.4 0l0 -6.8l-3.4 0Z" fill="rgb(227,73,2)" fill-opacity="0.3"></path>
<path d="M646.2 271l3.4 0l0 -6.3l-3.4 0Z" fill="rgb(227,73,2)" fill-opacity="0.3"></path>
<path d="M651.2 271l3.4 0l0 -5.6l-3.4 0Z" fill="rgb(227,73,2)" fill-opacity="0.3"></path>
<path d="M656.1 271l3.4 0l0 -5.4l-3.4 0Z" fill="rgb(227,73,2)" fill-opacity="0.3"></path>
<path d="M661 271l3.4 0l0 -5.4l-3.4 0Z" fill="rgb(227,73,2)" fill-opacity="0.3"></path>
<path d="M666 271l3.4 0l0 -5.4l-3.4 0Z" fill="rgb(227,73,2)" fill-opacity="0.3"></path>
<path d="M670.9 271l3.4 0l0 -5.4l-3.4 0Z" fill="rgb(227,73,2)" fill-opacity="0.3"></path>
<path d="M675.8 271l3.4 0l0 -5.4l-3.4 0Z" fill="rgb(227,73,2)" fill-opacity="0.3"></path>
<path d="M680.8 271l3.4 0l0 -5.4l-3.4 0Z" fill="rgb(227,73,2)" fill-opacity="0.3"></path>
<path d="M685.7 271l3.4 0l0 -5.4l-3.4 0Z" fill="rgb(227,73,2)" fill-opacity="0.3"></path>
<path d="M690.6 271l3.4 0l0 -5.2l-3.4 0Z" fill="rgb(227,73,2)" fill-opacity="0.3"></path>
<path d="M695.6 271l3.4 0l0 -5l-3.4 0Z" fill="rgb(227,73,2)" fill-opacity="0.3"></path>
<path d="M700.5 271l3.4 0l0 -4.8l-3.4 0Z" fill="rgb(227,73,2)" fill-opacity="0.3"></path>
<path d="M705.4 271l3.4 0l0 -4.8l-3.4 0Z" fill="rgb(227,73,2)" fill-opacity="0.3"></path>
<path d="M710.4 271l3.4 0l0 -4.4l-3.4 0Z" fill="rgb(227,73,2)" fill-opacity="0.3"></path>
<path d="M715.3 271l3.4 0l0 -4.1l-3.4 0Z" fill="rgb(227,73,2)" fill-opacity="0.3"></path>
<path d="M720.2 271l3.4 0l0 -3.5l-3.4 0Z" fill="rgb(227,73,2)" fill-opacity="0.3"></path>
<path d="M725.2 271l3.4 0l0 -3.1l-3.4 0Z" fill="rgb(227,73,2)" fill-opacity="0.3"></path>
<path d="M730.1 271l3.4 0l0 -3l-3.4 0Z" fill="rgb(227,73,2)" fill-opacity="0.3"></path>
<path d="M735 271l3.4 0l0 -2.8l-3.4 0Z" fill="rgb(227,73,2)" fill-opacity="0.3"></path>
<path d="M740 271l3.4 0l0 -2.6l-3.4 0Z" fill="rgb(227,73,2)" fill-opacity="0.3"></path>
<path d="M744.9 271l3.4 0l0 -2.4l-3.4 0Z" fill="rgb(227,73,2)" fill-opacity="0.3"></path>
<path d="M749.8 271l3.4 0l0 -2.2l-3.4 0Z" fill="rgb(227,73,2)" fill-opacity="0.3"></path>
<path d="M754.8 271l3.4 0l0 -2l-3.4 0Z" fill="rgb(227,73,2)" fill-opacity="0.3"></path>
<path d="M759.7 271l3.4 0l0 -2l-3.4 0Z" fill="rgb(227,73,2)" fill-opacity="0.3"></path>
<path d="M764.6 271l3.4 0l0 -1.7l-3.4 0Z" fill="rgb(227,73,2)" fill-opacity="0.3"></path>
<path d="M769.6 271l3.4 0l0 -1.7l-3.4 0Z" fill="rgb(227,73,2)" fill-opacity="0.3"></path>
<path d="M774.5 271l3.4 0l0 -1.7l-3.4 0Z" fill="rgb(227,73,2)" fill-opacity="0.3"></path>
<path d="M779.4 271l3.4 0l0 -1.5l-3.4 0Z" fill="rgb(227,73,2)" fill-opacity="0.3"></path>
<path d="M784.4 271l3.4 0l0 -1.3l-3.4 0Z" fill="rgb(227,73,2)" fill-opacity="0.3"></path>
<path d="M789.3 271l3.4 0l0 -1.1l-3.4 0Z" fill="rgb(227,73,2)" fill-opacity="0.3"></path>
<path d="M794.3 271l3.4 0l0 -1.1l-3.4 0Z" fill="rgb(227,73,2)" fill-opacity="0.3"></path>
<path d="M799.2 271l3.4 0l0 -1.1l-3.4 0Z" fill="rgb(227,73,2)" fill-opacity="0.3"></path>
<path d="M804.1 271l3.4 0l0 -0.9l-3.4 0Z" fill="rgb(227,73,2)" fill-opacity="0.3"></path>
<path d="M809.1 271l3.4 0l0 -0.9l-3.4 0Z" fill="rgb(227,73,2)" fill-opacity="0.3"></path>
<path d="M814 271l3.4 0l0 -0.9l-3.4 0Z" fill="rgb(227,73,2)" fill-opacity="0.3"></path>
<path d="M818.9 271l3.4 0l0 -0.9l-3.4 0Z" fill="rgb(227,73,2)" fill-opacity="0.3"></path>
<path d="M823.9 271l3.4 0l0 -0.9l-3.4 0Z" fill="rgb(227,73,2)" fill-opacity="0.3"></path>
<path d="M828.8 271l3.4 0l0 -0.9l-3.4 0Z" fill="rgb(227,73,2)" fill-opacity="0.3"></path>
<path d="M833.7 271l3.4 0l0 -0.7l-3.4 0Z" fill="rgb(227,73,2)" fill-opacity="0.3"></path>
<path d="M838.7 271l3.4 0l0 -0.7l-3.4 0Z" fill="rgb(227,73,2)" fill-opacity="0.3"></path>
<path d="M843.6 271l3.4 0l0 -0.7l-3.4 0Z" fill="rgb(227,73,2)" fill-opacity="0.3"></path>
<path d="M848.5 271l3.4 0l0 -0.7l-3.4 0Z" fill="rgb(227,73,2)" fill-opacity="0.3"></path>
<path d="M853.5 271l3.4 0l0 -0.7l-3.4 0Z" fill="rgb(227,73,2)" fill-opacity="0.3"></path>
<path d="M858.4 271l3.4 0l0 -0.7l-3.4 0Z" fill="rgb(227,73,2)" fill-opacity="0.3"></path>
<path d="M863.3 271l3.4 0l0 -0.7l-3.4 0Z" fill="rgb(227,73,2)" fill-opacity="0.3"></path>
<path d="M868.3 271l3.4 0l0 -0.7l-3.4 0Z" fill="rgb(227,73,2)" fill-opacity="0.3"></path>
<path d="M873.2 271l3.4 0l0 -0.7l-3.4 0Z" fill="rgb(227,73,2)" fill-opacity="0.3"></path>
<path d="M878.1 271l3.4 0l0 -0.6l-3.4 0Z" fill="rgb(227,73,2)" fill-opacity="0.3"></path>
<path d="M883.1 271l3.4 0l0 -0.6l-3.4 0Z" fill="rgb(227,73,2)" fill-opacity="0.3"></path>
<path d="M888 271l3.4 0l0 -0.6l-3.4 0Z" fill="rgb(227,73,2)" fill-opacity="0.3"></path>
<path d="M892.9 271l3.4 0l0 -0.4l-3.4 0Z" fill="rgb(227,73,2)" fill-opacity="0.3"></path>
<path d="M897.9 271l3.4 0l0 -0.2l-3.4 0Z" fill="rgb(227,73,2)" fill-opacity="0.3"></path>
<path d="M902.8 271l3.4 0l0 -0.2l-3.4 0Z" fill="rgb(227,73,2)" fill-opacity="0.3"></path>
<path d="M907.7 271l3.4 0l0 -0.2l-3.4 0Z" fill="rgb(227,73,2)" fill-opacity="0.3"></path>
<path d="M912.7 271l3.4 0l0 -0.2l-3.4 0Z" fill="rgb(227,73,2)" fill-opacity="0.3"></path>
<path d="M917.6 271l3.4 0l0 0l-3.4 0Z" fill="rgb(227,73,2)" fill-opacity="0.3"></path>
<path d="M-5 -5l226.9 0l0 24l-226.9 0Z" transform="translate(391.54 5)" fill="rgb(0,0,0)" fill-opacity="0" stroke="#ccc" stroke-width="0"></path>
<path d="M3.5 0L21.5 0A3.5 3.5 0 0 1 25 3.5L25 10.5A3.5 3.5 0 0 1 21.5 14L3.5 14A3.5 3.5 0 0 1 0 10.5L0 3.5A3.5 3.5 0 0 1 3.5 0" transform="translate(391.54 5)" fill="rgb(227,73,2)" fill-opacity="0.3"></path>
<text dominant-baseline="central" text-anchor="start" style="font-size:12px;font-family:sans-serif;" xml:space="preserve" x="30" y="7" transform="translate(391.54 5)" fill="#333">Times completed</text>
<path d="M0 7L25 7" transform="translate(524.1 5)" fill="#000" stroke="#E34902" stroke-width="2" stroke-linecap="butt" stroke-miterlimit="10"></path>
<path d="M18.1 7A5.6 5.6 0 1 1 18.1 6.4A5.6 5.6 0 0 1 18.1 7" transform="translate(524.1 5)" fill="#fff" stroke="#E34902" stroke-width="2" stroke-linecap="butt" stroke-miterlimit="10"></path>
<text dominant-baseline="central" text-anchor="start" style="font-size:12px;font-family:sans-serif;" x="30" y="7" transform="translate(524.1 5)" fill="#333">Eddington</text>
<path d="M-0.54 -0.89A0.6 0.6 0 1 1 0.54 -0.89C0.39 -0.56 0 -0.42 0 0C0 -0.42 -0.39 -0.56 -0.54 -0.89Z" transform="matrix(25,0,0,25,504.8673,249.3421)" fill="rgb(227,73,2)" fill-opacity="0.8"></path>
<text dominant-baseline="central" text-anchor="middle" style="font-size:12px;font-family:sans-serif;" transform="translate(504.8673 223.1992)" fill="#eee" stroke="rgb(227,73,2)" stroke-width="2" paint-order="stroke" stroke-opacity="0.8" stroke-miterlimit="2">89</text>
<g clip-path="url(#zr0-c0)">
<path d="M70.7 270.8L75.6 270.6L80.6 270.4L85.5 270.3L90.4 270.1L95.4 269.9L100.3 269.7L105.2 269.5L110.2 269.3L115.1 269.1L120 269L125 268.8L129.9 268.6L134.8 268.4L139.8 268.2L144.7 268L149.6 267.9L154.6 267.7L159.5 267.5L164.4 267.3L169.4 267.1L174.3 266.9L179.2 266.7L184.2 266.6L189.1 266.4L194 266.2L199 266L203.9 265.8L208.8 265.6L213.8 265.4L218.7 265.3L223.6 265.1L228.6 264.9L233.5 264.7L238.5 264.5L243.4 264.3L248.3 264.2L253.3 264L258.2 263.8L263.1 263.6L268.1 263.4L273 263.2L277.9 263L282.9 262.9L287.8 262.7L292.7 262.5L297.7 262.3L302.6 262.1L307.5 261.9L312.5 261.7L317.4 261.6L322.3 261.4L327.3 261.2L332.2 261L337.1 260.8L342.1 260.6L347 260.5L351.9 260.3L356.9 260.1L361.8 259.9L366.7 259.7L371.7 259.5L376.6 259.3L381.5 259.2L386.5 259L391.4 258.8L396.3 258.6L401.3 258.4L406.2 258.2L411.1 258L416.1 257.9L421 257.7L425.9 257.5L430.9 257.3L435.8 257.1L440.7 256.9L445.7 256.7L450.6 256.6L455.5 256.4L460.5 256.2L465.4 256L470.3 255.8L475.3 255.6L480.2 255.5L485.1 255.3L490.1 255.1L495 254.9L499.9 254.7L504.9 254.5L509.8 254.3L514.7 254.2L519.7 254L524.6 253.8L529.5 253.6L534.5 253.4L539.4 253.2L544.3 253L549.3 252.9L554.2 252.7L559.1 252.5L564.1 252.3L569 252.1L573.9 251.9L578.9 251.8L583.8 251.6L588.7 251.4L593.7 251.2L598.6 251L603.5 250.8L608.5 250.6L613.4 250.5L618.3 250.3L623.3 250.1L628.2 249.9L633.1 249.7L638.1 249.5L643 249.3L647.9 249.2L652.9 249L657.8 248.8L662.7 248.6L667.7 248.4L672.6 248.2L677.5 248L682.5 247.9L687.4 247.7L692.3 247.5L697.3 247.3L702.2 247.1L707.1 246.9L712.1 246.8L717 246.6L721.9 246.4L726.9 246.2L731.8 246L736.7 245.8L741.7 245.6L746.6 245.5L751.5 245.3L756.5 245.1L761.4 244.9L766.4 244.7L771.3 244.5L776.2 244.3L781.2 244.2L786.1 244L791 243.8L796 243.6L800.9 243.4L805.8 243.2L810.8 243.1L815.7 242.9L820.6 242.7L825.6 242.5L830.5 242.3L835.4 242.1L840.4 241.9L845.3 241.8L850.2 241.6L855.2 241.4L860.1 241.2L865 241L870 240.8L874.9 240.6L879.8 240.5L884.8 240.3L889.7 240.1L894.6 239.9L899.6 239.7L904.5 239.5L909.4 239.4L914.4 239.2L919.3 239" fill="none" stroke="#E34902" stroke-width="2" stroke-linejoin="bevel"></path>
</g>
<defs >
<clipPath id="zr0-c0">
<path d="M67 59l856 0l0 213l-856 0Z" fill="#000"></path>
</clipPath>
</defs>
</svg>