<svg width="1000" height="300" xmlns="http://www.w3.org/2000/svg" xmlns:xlink="http://www.w3.org/1999/xlink" version="1.1" baseProfile="full" viewBox="0 0 1000 300">
<rect width="1000" height="300" x="0" y="0" id="0" fill="#ffffff"></rect>
<path d="M68.2 271.5L921.8 271.5" fill="none" stroke="#E0E6F1"></path>
<path d="M68.2 229.5L921.8 229.5" fill="none" stroke="#E0E6F1"></path>
<path d="M68.2 186.5L921.8 186.5" fill="none" stroke="#E0E6F1"></path>
<path d="M68.2 144.5L921.8 144.5" fill="none" stroke="#E0E6F1"></path>
<path d="M68.2 102.5L921.8 102.5" fill="none" stroke="#E0E6F1"></path>
<path d="M68.2 60.5L921.8 60.5" fill="none" stroke="#E0E6F1"></path>
<path d="M68.2 271.5L921.8 271.5" fill="none" stroke="#6E7079" stroke-linecap="round"></path>
<path d="M70.5 271L70.5 276" fill="none" stroke="#6E7079"></path>
<path d="M120.5 271L120.5 276" fill="none" stroke="#6E7079"></path>
<path d="M169.5 271L169.5 276" fill="none" stroke="#6E7079"></path>
<path d="M218.5 271L218.5 276" fill="none" stroke="#6E7079"></path>
<path d="M268.5 271L268.5 276" fill="none" stroke="#6E7079"></path>
<path d="M317.5 271L317.5 276" fill="none" stroke="#6E7079"></path>
<path d="M366.5 271L366.5 276" fill="none" stroke="#6E7079"></path>
<path d="M416.5 271L416.5 276" fill="none" stroke="#6E7079"></path>
<path d="M465.5 271L465.5 276" fill="none" stroke="#6E7079"></path>
<path d="M514.5 271L514.5 276" fill="none" stroke="#6E7079"></path>
<path d="M564.5 271L564.5 276" fill="none" stroke="#6E7079"></path>
<path d="M613.5 271L613.5 276" fill="none" stroke="#6E7079"></path>
<path d="M662.5 271L662.5 276" fill="none" stroke="#6E7079"></path>
<path d="M712.5 271L712.5 276" fill="none" stroke="#6E7079"></path>
<path d="M761.5 271L761.5 276" fill="none" stroke="#6E7079"></path>
<path d="M811.5 271L811.5 276" fill="none" stroke="#6E7079"></path>
<path d="M860.5 271L860.5 276" fill="none" stroke="#6E7079"></path>
<path d="M909.5 271L909.5 276" fill="none" stroke="#6E7079"></path>
<text dominant-baseline="central" text-anchor="end" style="font-size:12px;font-family:sans-serif;" transform="translate(60.24 271)" fill="#6E7079">0</text>
<text dominant-baseline="central" text-anchor="end" style="font-size:12px;font-family:sans-serif;" transform="translate(60.24 228.8)" fill="#6E7079">240</text>
<text dominant-baseline="central" text-anchor="end" style="font-size:12px;font-family:sans-serif;" transform="translate(60.24 186.6)" fill="#6E7079">480</text>
<text dominant-baseline="central" text-anchor="end" style="font-size:12px;font-family:sans-serif;" transform="translate(60.24 144.4)" fill="#6E7079">720</text>
<text dominant-baseline="central" text-anchor="end" style="font-size:12px;font-family:sans-serif;" transform="translate(60.24 102.2)" fill="#6E7079">960</text>
<text dominant-baseline="central" text-anchor="end" style="font-size:12px;font-family:sans-serif;" transform="translate(60.24 60)" fill="#6E7079">1,200</text>
<text dominant-baseline="central" text-anchor="start" style="font-size:12px;font-family:sans-serif;" transform="translate(929.76 271)" fill="#6E7079">0</text>
<text dominant-baseline="central" text-anchor="start" style="font-size:12px;font-family:sans-serif;" transform="translate(929.76 228.8)" fill="#6E7079">240</text>
<text dominant-baseline="central" text-anchor="start" style="font-size:12px;font-family:sans-serif;" transform="translate(929.76 186.6)" fill="#6E7079">480</text>
<text dominant-baseline="central" text-anchor="start" style="font-size:12px;font-family:sans-serif;" transform="translate(929.76 144.4)" fill="#6E7079">720</text>
<text dominant-baseline="central" text-anchor="start" style="font-size:12px;font-family:sans-serif;" transform="translate(929.76 102.2)" fill="#6E7079">960</text>
<text dominant-baseline="central" text-anchor="start" style="font-size:12px;font-family:sans-serif;" transform="translate(929.76 60)" fill="#6E7079">1,200</text>
<text dominant-baseline="central" text-anchor="middle" style="font-size:12px;font-family:sans-serif;" y="6" transform="translate(70.7068 279)" fill="#6E7079">1km</text>
<text dominant-baseline="central" text-anchor="middle" style="font-size:12px;font-family:sans-serif;" y="6" transform="translate(120.0432 279)" fill="#6E7079">11km</text>
<text dominant-baseline="central" text-anchor="middle" style="font-size:12px;font-family:sans-serif;" y="6" transform="translate(169.3797 279)" fill="#6E7079">21km</text>
<text dominant-baseline="central" text-anchor="middle" style="font-size:12px;font-family:sans-serif;" y="6" transform="translate(218.7161 279)" fill="#6E7079">31km</text>
<text dominant-baseline="central" text-anchor="middle" style="font-size:12px;font-family:sans-serif;" y="6" transform="translate(268.0525 279)" fill="#6E7079">41km</text>
<text dominant-baseline="central" text-anchor="middle" style="font-size:12px;font-family:sans-serif;" y="6" transform="translate(317.3889 279)" fill="#6E7079">51km</text>
<text dominant-baseline="central" text-anchor="middle" style="font-size:12px;font-family:sans-serif;" y="6" transform="translate(366.7253 279)" fill="#6E7079">61km</text>
<text dominant-baseline="central" text-anchor="middle" style="font-size:12px;font-family:sans-serif;" y="6" transform="translate(416.0617 279)" fill="#6E7079">71km</text>
<text dominant-baseline="central" text-anchor="middle" style="font-size:12px;font-family:sans-serif;" y="6" transform="translate(465.3982 279)" fill="#6E7079">81km</text>
<text dominant-baseline="central" text-anchor="middle" style="font-size:12px;font-family:sans-serif;" y="6" transform="translate(514.7346 279)" fill="#6E7079">91km</text>
<text dominant-baseline="central" text-anchor="middle" style="font-size:12px;font-family:sans-serif;" y="6" transform="translate(564.071 279)" fill="#6E7079">101km</text>
<text dominant-baseline="central" text-anchor="middle" style="font-size:12px;font-family:sans-serif;" y="6" transform="translate(613.4074 279)" fill="#6E7079">111km</text>
<text dominant-baseline="central" text-anchor="middle" style="font-size:12px;font-family:sans-serif;" y="6" transform="translate(662.7438 279)" fill="#6E7079">121km</text>
<text dominant-baseline="central" text-anchor="middle" style="font-size:12px;font-family:sans-serif;" y="6" transform="translate(712.0802 279)" fill="#6E7079">131km</text>
<text dominant-baseline="central" text-anchor="middle" style="font-size:12px;font-family:sans-serif;" y="6" transform="translate(761.4166 279)" fill="#6E7079">141km</text>
<text dominant-baseline="central" text-anchor="middle" style="font-size:12px;font-family:sans-serif;" y="6" transform="translate(810.7531 279)" fill="#6E7079">151km</text>
<text dominant-baseline="central" text-anchor="middle" style="font-size:12px;font-family:sans-serif;" y="6" transform="translate(860.0895 279)" fill="#6E7079">161km</text>
<text dominant-baseline="central" text-anchor="middle" style="font-size:12px;font-family:sans-serif;" y="6" transform="translate(909.4259 279)" fill="#6E7079">171km</text>
<path d="M69 271l3.4 0l0 -206.8l-3.4 0Z" fill="rgb(227,73,2)" fill-opacity="0.3"></path>
<path d="M73.9 271l3.4 0l0 -206.4l-3.4 0Z" fill="rgb(227,73,2)" fill-opacity="0.3"></path>
<path d="M78.9 271l3.4 0l0 -206.3l-3.4 0Z" fill="rgb(227,73,2)" fill-opacity="0.3"></path>
<path d="M83.8 271l3.4 0l0 -206.1l-3.4 0Z" fill="rgb(227,73,2)" fill-opacity="0.3"></path>
<path d="M88.7 271l3.4 0l0 -205.4l-3.4 0Z" fill="rgb(227,73,2)" fill-opacity="0.3"></path>
<path d="M93.7 271l3.4 0l0 -205.2l-3.4 0Z" fill="rgb(227,73,2)" fill-opacity="0.3"></path>
<path d="M98.6 271l3.4 0l0 -204.8l-3.4 0Z" fill="rgb(227,73,2)" fill-opacity="0.3"></path>
<path d="M103.5 271l3.4 0l0 -203.8l-3.4 0Z" fill="rgb(227,73,2)" fill-opacity="0.3"></path>
<path d="M108.5 271l3.4 0l0 -203.3l-3.4 0Z" fill="rgb(227,73,2)" fill-opacity="0.3"></path>
<path d="M113.4 271l3.4 0l0 -202.9l-3.4 0Z" fill="rgb(227,73,2)" fill-opacity="0.3"></path>
<path d="M118.3 271l3.4 0l0 -202.6l-3.4 0Z" fill="rgb(227,73,2)" fill-opacity="0.3"></path>
<path d="M123.3 271l3.4 0l0 -202.2l-3.4 0Z" fill="rgb(227,73,2)" fill-opacity="0.3"></path>
<path d="M128.2 271l3.4 0l0 -201.5l-3.4 0Z" fill="rgb(227,73,2)" fill-opacity="0.3"></path>
<path d="M133.1 271l3.4 0l0 -200.4l-3.4 0Z" fill="rgb(227,73,2)" fill-opacity="0.3"></path>
<path d="M138.1 271l3.4 0l0 -199l-3.4 0Z" fill="rgb(227,73,2)" fill-opacity="0.3"></path>
<path d="M143 271l3.4 0l0 -197.5l-3.4 0Z" fill="rgb(227,73,2)" fill-opacity="0.3"></path>
<path d="M147.9 271l3.4 0l0 -196.1l-3.4 0Z" fill="rgb(227,73,2)" fill-opacity="0.3"></path>
<path d="M152.9 271l3.4 0l0 -194.3l-3.4 0Z" fill="rgb(227,73,2)" fill-opacity="0.3"></path>
<path d="M157.8 271l3.4 0l0 -191l-3.4 0Z" fill="rgb(227,73,2)" fill-opacity="0.3"></path>
<path d="M162.7 271l3.4 0l0 -189l-3.4 0Z" fill="rgb(227,73,2)" fill-opacity="0.3"></path>
<path d="M167.7 271l3.4 0l0 -186l-3.4 0Z" fill="rgb(227,73,2)" fill-opacity="0.3"></path>
<path d="M172.6 271l3.4 0l0 -181.6l-3.4 0Z" fill="rgb(227,73,2)" fill-opacity="0.3"></path>
<path d="M177.5 271l3.4 0l0 -178.1l-3.4 0Z" fill="rgb(227,73,2)" fill-opacity="0.3"></path>
<path d="M182.5 271l3.4 0l0 -173.7l-3.4 0Z" fill="rgb(227,73,2)" fill-opacity="0.3"></path>
<path d="M187.4 271l3.4 0l0 -168.1l-3.4 0Z" fill="rgb(227,73,2)" fill-opacity="0.3"></path>
<path d="M192.3 271l3.4 0l0 -162.5l-3.4 0Z" fill="rgb(227,73,2)" fill-opacity="0.3"></path>
<path d="M197.3 271l3.4 0l0 -157.7l-3.4 0Z" fill="rgb(227,73,2)" fill-opacity="0.3"></path>
<path d="M202.2 271l3.4 0l0 -152.6l-3.4 0Z" fill="rgb(227,73,2)" fill-opacity="0.3"></path>
<path d="M207.1 271l3.4 0l0 -147l-3.4 0Z" fill="rgb(227,73,2)" fill-opacity="0.3"></path>
<path d="M212.1 271l3.4 0l0 -143.1l-3.4 0Z" fill="rgb(227,73,2)" fill-opacity="0.3"></path>
<path d="M217 271l3.4 0l0 -137.1l-3.4 0Z" fill="rgb(227,73,2)" fill-opacity="0.3"></path>
<path d="M221.9 271l3.4 0l0 -131.9l-3.4 0Z" fill="rgb(227,73,2)" fill-opacity="0.3"></path>
<path d="M226.9 271l3.4 0l0 -127.7l-3.4 0Z" fill="rgb(227,73,2)" fill-opacity="0.3"></path>
<path d="M231.8 271l3.4 0l0 -124.1l-3.4 0Z" fill="rgb(227,73,2)" fill-opacity="0.3"></path>
<path d="M236.7 271l3.4 0l0 -121.5l-3.4 0Z" fill="rgb(227,73,2)" fill-opacity="0.3"></path>
<path d="M241.7 271l3.4 0l0 -116.6l-3.4 0Z" fill="rgb(227,73,2)" fill-opacity="0.3"></path>
<path d="M246.6 271l3.4 0l0 -112.4l-3.4 0Z" fill="rgb(227,73,2)" fill-opacity="0.3"></path>
<path d="M251.5 271l3.4 0l0 -108.8l-3.4 0Z" fill="rgb(227,73,2)" fill-opacity="0.3"></path>
<path d="M256.5 271l3.4 0l0 -106.9l-3.4 0Z" fill="rgb(227,73,2)" fill-opacity="0.3"></path>
<path d="M261.4 271l3.4 0l0 -103.2l-3.4 0Z" fill="rgb(227,73,2)" fill-opacity="0.3"></path>
<path d="M266.4 271l3.4 0l0 -100.2l-3.4 0Z" fill="rgb(227,73,2)" fill-opacity="0.3"></path>
<path d="M271.3 271l3.4 0l0 -96.7l-3.4 0Z" fill="rgb(227,73,2)" fill-opacity="0.3"></path>
<path d="M276.2 271l3.4 0l0 -92.5l-3.4 0Z" fill="rgb(227,73,2)" fill-opacity="0.3"></path>
<path d="M281.2 271l3.4 0l0 -88.8l-3.4 0Z" fill="rgb(227,73,2)" fill-opacity="0.3"></path>
<path d="M286.1 271l3.4 0l0 -85.1l-3.4 0Z" fill="rgb(227,73,2)" fill-opacity="0.3"></path>
<path d="M291 271l3.4 0l0 -81.4l-3.4 0Z" fill="rgb(227,73,2)" fill-opacity="0.3"></path>
<path d="M296 271l3.4 0l0 -78.4l-3.4 0Z" fill="rgb(227,73,2)" fill-opacity="0.3"></path>
<path d="M300.9 271l3.4 0l0 -75.1l-3.4 0Z" fill="rgb(227,73,2)" fill-opacity="0.3"></path>
<path d="M305.8 271l3.4 0l0 -72.4l-3.4 0Z" fill="rgb(227,73,2)" fill-opacity="0.3"></path>
<path d="M310.8 271l3.4 0l0 -70l-3.4 0Z" fill="rgb(227,73,2)" fill-opacity="0.3"></path>
<path d="M315.7 271l3.4 0l0 -67.2l-3.4 0Z" fill="rgb(227,73,2)" fill-opacity="0.3"></path>
<path d="M320.6 271l3.4 0l0 -65.8l-3.4 0Z" fill="rgb(227,73,2)" fill-opacity="0.3"></path>
<path d="M325.6 271l3.4 0l0 -64l-3.4 0Z" fill="rgb(227,73,2)" fill-opacity="0.3"></path>
<path d="M330.5 271l3.4 0l0 -61.2l-3.4 0Z" fill="rgb(227,73,2)" fill-opacity="0.3"></path>
<path d="M335.4 271l3.4 0l0 -58.7l-3.4 0Z" fill="rgb(227,73,2)" fill-opacity="0.3"></path>
<path d="M340.4 271l3.4 0l0 -56.6l-3.4 0Z" fill="rgb(227,73,2)" fill-opacity="0.3"></path>
<path d="M345.3 271l3.4 0l0 -54l-3.4 0Z" fill="rgb(227,73,2)" fill-opacity="0.3"></path>
<path d="M350.2 271l3.4 0l0 -52.6l-3.4 0Z" fill="rgb(227,73,2)" fill-opacity="0.3"></path>
<path d="M355.2 271l3.4 0l0 -51.3l-3.4 0Z" fill="rgb(227,73,2)" fill-opacity="0.3"></path>
<path d="M360.1 271l3.4 0l0 -50.1l-3.4 0Z" fill="rgb(227,73,2)" fill-opacity="0.3"></path>
<path d="M365 271l3.4 0l0 -47.3l-3.4 0Z" fill="rgb(227,73,2)" fill-opacity="0.3"></path>
<path d="M370 271l3.4 0l0 -45.5l-3.4 0Z" fill="rgb(227,73,2)" fill-opacity="0.3"></path>
<path d="M374.9 271l3.4 0l0 -43.3l-3.4 0Z" fill="rgb(227,73,2)" fill-opacity="0.3"></path>
<path d="M379.8 271l3.4 0l0 -42l-3.4 0Z" fill="rgb(227,73,2)" fill-opacity="0.3"></path>
<path d="M384.8 271l3.4 0l0 -40.8l-3.4 0Z" fill="rgb(227,73,2)" fill-opacity="0.3"></path>
<path d="M389.7 271l3.4 0l0 -39l-3.4 0Z" fill="rgb(227,73,2)" fill-opacity="0.3"></path>
<path d="M394.6 271l3.4 0l0 -37.6l-3.4 0Z" fill="rgb(227,73,2)" fill-opacity="0.3"></path>
<path d="M399.6 271l3.4 0l0 -35.5l-3.4 0Z" fill="rgb(227,73,2)" fill-opacity="0.3"></path>
<path d="M404.5 271l3.4 0l0 -34.3l-3.4 0Z" fill="rgb(227,73,2)" fill-opacity="0.3"></path>
<path d="M409.4 271l3.4 0l0 -32.7l-3.4 0Z" fill="rgb(227,73,2)" fill-opacity="0.3"></path>
<path d="M414.4 271l3.4 0l0 -31.1l-3.4 0Z" fill="rgb(227,73,2)" fill-opacity="0.3"></path>
<path d="M419.3 271l3.4 0l0 -29.5l-3.4 0Z" fill="rgb(227,73,2)" fill-opacity="0.3"></path>
<path d="M424.2 271l3.4 0l0 -29l-3.4 0Z" fill="rgb(227,73,2)" fill-opacity="0.3"></path>
<path d="M429.2 271l3.4 0l0 -28l-3.4 0Z" fill="rgb(227,73,2)" fill-opacity="0.3"></path>
<path d="M434.1 271l3.4 0l0 -26.9l-3.4 0Z" fill="rgb(227,73,2)" fill-opacity="0.3"></path>
<path d="M439 271l3.4 0l0 -25.3l-3.4 0Z" fill="rgb(227,73,2)" fill-opacity="0.3"></path>
<path d="M444 271l3.4 0l0 -24.1l-3.4 0Z" fill="rgb(227,73,2)" fill-opacity="0.3"></path>
<path d="M448.9 271l3.4 0l0 -23.9l-3.4 0Z" fill="rgb(227,73,2)" fill-opacity="0.3"></path>
<path d="M453.8 271l3.4 0l0 -23.4l-3.4 0Z" fill="rgb(227,73,2)" fill-opacity="0.3"></path>
<path d="M458.8 271l3.4 0l0 -22.3l-3.4 0Z" fill="rgb(227,73,2)" fill-opacity="0.3"></path>
<path d="M463.7 271l3.4 0l0 -21.3l-3.4 0Z" fill="rgb(227,73,2)" fill-opacity="0.3"></path>
<path d="M468.6 271l3.4 0l0 -20l-3.4 0Z" fill="rgb(227,73,2)" fill-opacity="0.3"></path>
<path d="M473.6 271l3.4 0l0 -19.9l-3.4 0Z" fill="rgb(227,73,2)" fill-opacity="0.3"></path>
<path d="M478.5 271l3.4 0l0 -19.5l-3.4 0Z" fill="rgb(227,73,2)" fill-opacity="0.3"></path>
<path d="M483.4 271l3.4 0l0 -19l-3.4 0Z" fill="rgb(227,73,2)" fill-opacity="0.3"></path>
<path d="M488.4 271l3.4 0l0 -18.5l-3.4 0Z" fill="rgb(227,73,2)" fill-opacity="0.3"></path>
<path d="M493.3 271l3.4 0l0 -17.8l-3.4 0Z" fill="rgb(227,73,2)" fill-opacity="0.3"></path>
<path d="M498.2 271l3.4 0l0 -17.2l-3.4 0Z" fill="rgb(227,73,2)" fill-opacity="0.3"></path>
<path d="M503.2 271l3.4 0l0 -16.4l-3.4 0Z" fill="rgb(227,73,2)" fill-opacity="0.3"></path>
<path d="M508.1 271l3.4 0l0 -16l-3.4 0Z" fill="rgb(227,73,2)" fill-opacity="0.8"></path>
<path d="M513 271l3.4 0l0 -15.3l-3.4 0Z" fill="rgb(227,73,2)" fill-opacity="0.3"></path>
<path d="M518 271l3.4 0l0 -14.9l-3.4 0Z" fill="rgb(227,73,2)" fill-opacity="0.3"></path>
<path d="M522.9 271l3.4 0l0 -14.2l-3.4 0Z" fill="rgb(227,73,2)" fill-opacity="0.3"></path>
<path d="M527.8 271l3.4 0l0 -13.2l-3.4 0Z" fill="rgb(227,73,2)" fill-opacity="0.3"></path>
<path d="M532.8 271l3.4 0l0 -12.8l-3.4 0Z" fill="rgb(227,73,2)" fill-opacity="0.3"></path>
<path d="M537.7 271l3.4 0l0 -12.7l-3.4 0Z" fill="rgb(227,73,2)" fill-opacity="0.3"></path>
<path d="M542.6 271l3.4 0l0 -12.3l-3.4 0Z" fill="rgb(227,73,2)" fill-opacity="0.3"></path>
<path d="M547.6 271l3.4 0l0 -12.1l-3.4 0Z" fill="rgb(227,73,2)" fill-opacity="0.3"></path>
<path d="M552.5 271l3.4 0l0 -11.6l-3.4 0Z" fill="rgb(227,73,2)" fill-opacity="0.3"></path>
<path d="M557.4 271l3.4 0l0 -11.1l-3.4 0Z" fill="rgb(227,73,2)" fill-opacity="0.3"></path>
<path d="M562.4 271l3.4 0l0 -10.6l-3.4 0Z" fill="rgb(227,73,2)" fill-opacity="0.3"></path>
<path d="M567.3 271l3.4 0l0 -9.8l-3.4 0Z" fill="rgb(227,73,2)" fill-opacity="0.3"></path>
<path d="M572.2 271l3.4 0l0 -9.5l-3.4 0Z" fill="rgb(227,73,2)" fill-opacity="0.3"></path>
<path d="M577.2 271l3.4 0l0 -9.3l-3.4 0Z" fill="rgb(227,73,2)" fill-opacity="0.3"></path>
<path d="M582.1 271l3.4 0l0 -9l-3.4 0Z" fill="rgb(227,73,2)" fill-opacity="0.3"></path>
<path d="M587 271l3.4 0l0 -8.4l-3.4 0Z" fill="rgb(227,73,2)" fill-opacity="0.3"></path>
<path d="M592 271l3.4 0l0 -8.1l-3.4 0Z" fill="rgb(227,73,2)" fill-opacity="0.3"></path>
<path d="M596.9 271l3.4 0l0 -7.9l-3.4 0Z" fill="rgb(227,73,2)" fill-opacity="0.3"></path>
<path d="M601.8 271l3.4 0l0 -7.9l-3.4 0Z" fill="rgb(227,73,2)" fill-opacity="0.3"></path>
<path d="M606.8 271l3.4 0l0 -7.7l-3.4 0Z" fill="rgb(227,73,2)" fill-opacity="0.3"></path>
<path d="M611.7 271l3.4 0l0 -7.2l-3.4 0Z" fill="rgb(227,73,2)" fill-opacity="0.3"></path>
<path d="M616.6 271l3.4 0l0 -7.2l-3.4 0Z" fill="rgb(227,73,2)" fill-opacity="0.3"></path>
<path d="M621.6 271l3.4 0l0 -7.2l-3.4 0Z" fill="rgb(227,73,2)" fill-opacity="0.3"></path>
<path d="M626.5 271l3.4 0l0 -6.9l-3.4 0Z" fill="rgb(227,73,2)" fill-opacity="0.3"></path>
<path d="M631.4 271l3.4 0l0 -6.7l-3.4 0Z" fill="rgb(227,73,2)" fill-opacity="0.3"></path>
<path d="M636.4 271l3.4 0l0 -6.7l-3.4 0Z" fill="rgb(227,73,2)" fill-opacity="0.3"></path>
<path d="M641.3 271l3.4 0l0 -6.5l-3.4 0Z" fill="rgb(227,73,2)" fill-opacity="0.3"></path>
<path d="M646.2 271l3.4 0l0 -6l-3.4 0Z" fill="rgb(227,73,2)" fill-opacity="0.3"></path>
<path d="M651.2 271l3.4 0l0 -5.3l-3.4 0Z" fill="rgb(227,73,2)" fill-opacity="0.3"></path>
<path d="M656.1 271l3.4 0l0 -5.1l-3.4 0Z" fill="rgb(227,73,2)" fill-opacity="0.3"></path>
<path d="M661 271l3.4 0l0 -5.1l-3.4 0Z" fill="rgb(227,73,2)" fill-opacity="0.3"></path>
<path d="M666 271l3.4 0l0 -5.1l-3.4 0Z" fill="rgb(227,73,2)" fill-opacity="0.3"></path>
<path d="M670.9 271l3.4 0l0 -5.1l-3.4 0Z" fill="rgb(227,73,2)" fill-opacity="0.3"></path>
<path d="M675.8 271l3.4 0l0 -5.1l-3.4 0Z" fill="rgb(227,73,2)" fill-opacity="0.3"></path>
<path d="M680.8 271l3.4 0l0 -5.1l-3.4 0Z" fill="rgb(227,73,2)" fill-opacity="0.3"></path>
<path d="M685.7 271l3.4 0l0 -5.1l-3.4 0Z" fill="rgb(227,73,2)" fill-opacity="0.3"></path>
<path d="M690.6 271l3.4 0l0 -4.9l-3.4 0Z" fill="rgb(227,73,2)" fill-opacity="0.3"></path>
<path d="M695.6 271l3.4 0l0 -4.7l-3.4 0Z" fill="rgb(227,73,2)" fill-opacity="0.3"></path>
<path d="M700.5 271l3.4 0l0 -4.6l-3.4 0Z" fill="rgb(227,73,2)" fill-opacity="0.3"></path>
<path d="M705.4 271l3.4 0l0 -4.6l-3.4 0Z" fill="rgb(227,73,2)" fill-opacity="0.3"></path>
<path d="M710.4 271l3.4 0l0 -4.2l-3.4 0Z" fill="rgb(227,73,2)" fill-opacity="0.3"></path>
<path d="M715.3 271l3.4 0l0 -3.9l-3.4 0Z" fill="rgb(227,73,2)" fill-opacity="0.3"></path>
<path d="M720.2 271l3.4 0l0 -3.3l-3.4 0Z" fill="rgb(227,73,2)" fill-opacity="0.3"></path>
<path d="M725.2 271l3.4 0l0 -3l-3.4 0Z" fill="rgb(227,73,2)" fill-opacity="0.3"></path>
<path d="M730.1 271l3.4 0l0 -2.8l-3.4 0Z" fill="rgb(227,73,2)" fill-opacity="0.3"></path>
<path d="M735 271l3.4 0l0 -2.6l-3.4 0Z" fill="rgb(227,73,2)" fill-opacity="0.3"></path>
<path d="M740 271l3.4 0l0 -2.5l-3.4 0Z" fill="rgb(227,73,2)" fill-opacity="0.3"></path>
<path d="M744.9 271l3.4 0l0 -2.3l-3.4 0Z" fill="rgb(227,73,2)" fill-opacity="0.3"></path>
<path d="M749.8 271l3.4 0l0 -2.1l-3.4 0Z" fill="rgb(227,73,2)" fill-opacity="0.3"></path>
<path d="M754.8 271l3.4 0l0 -1.9l-3.4 0Z" fill="rgb(227,73,2)" fill-opacity="0.3"></path>
<path d="M759.7 271l3.4 0l0 -1.9l-3.4 0Z" fill="rgb(227,73,2)" fill-opacity="0.3"></path>
<path d="M764.6 271l3.4 0l0 -1.6l-3.4 0Z" fill="rgb(227,73,2)" fill-opacity="0.3"></path>
<path d="M769.6 271l3.4 0l0 -1.6l-3.4 0Z" fill="rgb(227,73,2)" fill-opacity="0.3"></path>
<path d="M774.5 271l3.4 0l0 -1.6l-3.4 0Z" fill="rgb(227,73,2)" fill-opacity="0.3"></path>
<path d="M779.4 271l3.4 0l0 -1.4l-3.4 0Z" fill="rgb(227,73,2)" fill-opacity="0.3"></path>
<path d="M784.4 271l3.4 0l0 -1.2l-3.4 0Z" fill="rgb(227,73,2)" fill-opacity="0.3"></path>
<path d="M789.3 271l3.4 0l0 -1.1l-3.4 0Z" fill="rgb(227,73,2)" fill-opacity="0.3"></path>
<path d="M794.3 271l3.4 0l0 -1.1l-3.4 0Z" fill="rgb(227,73,2)" fill-opacity="0.3"></path>
<path d="M799.2 271l3.4 0l0 -1.1l-3.4 0Z" fill="rgb(227,73,2)" fill-opacity="0.3"></path>
<path d="M804.1 271l3.4 0l0 -0.9l-3.4 0Z" fill="rgb(227,73,2)" fill-opacity="0.3"></path>
<path d="M809.1 271l3.4 0l0 -0.9l-3.4 0Z" fill="rgb(227,73,2)" fill-opacity="0.3"></path>
<path d="M814 271l3.4 0l0 -0.9l-3.4 0Z" fill="rgb(227,73,2)" fill-opacity="0.3"></path>
<path d="M818.9 271l3.4 0l0 -0.9l-3.4 0Z" fill="rgb(227,73,2)" fill-opacity="0.3"></path>
<path d="M823.9 271l3.4 0l0 -0.9l-3.4 0Z" fill="rgb(227,73,2)" fill-opacity="0.3"></path>
<path d="M828.8 271l3.4 0l0 -0.9l-3.4 0Z" fill="rgb(227,73,2)" fill-opacity="0.3"></path>
<path d="M833.7 271l3.4 0l0 -0.7l-3.4 0Z" fill="rgb(227,73,2)" fill-opacity="0.3"></path>
<path d="M838.7 271l3.4 0l0 -0.7l-3.4 0Z" fill="rgb(227,73,2)" fill-opacity="0.3"></path>
<path d="M843.6 271l3.4 0l0 -0.7l-3.4 0Z" fill="rgb(227,73,2)" fill-opacity="0.3"></path>
<path d="M848.5 271l3.4 0l0 -0.7l-3.4 0Z" fill="rgb(227,73,2)" fill-opacity="0.3"></path>
<path d="M853.5 271l3.4 0l0 -0.7l-3.4 0Z" fill="rgb(227,73,2)" fill-opacity="0.3"></path>
<path d="M858.4 271l3.4 0l0 -0.7l-3.4 0Z" fill="rgb(227,73,2)" fill-opacity="0.3"></path>
<path d="M863.3 271l3.4 0l0 -0.7l-3.4 0Z" fill="rgb(227,73,2)" fill-opacity="0.3"></path>
<path d="M868.3 271l3.4 0l0 -0.7l-3.4 0Z" fill="rgb(227,73,2)" fill-opacity="0.3"></path>
<path d="M873.2 271l3.4 0l0 -0.7l-3.4 0Z" fill="rgb(227,73,2)" fill-opacity="0.3"></path>
<path d="M878.1 271l3.4 0l0 -0.5l-3.4 0Z" fill="rgb(227,73,2)" fill-opacity="0.3"></path>
<path d="M883.1 271l3.4 0l0 -0.5l-3.4 0Z" fill="rgb(227,73,2)" fill-opacity="0.3"></path>
<path d="M888 271l3.4 0l0 -0.5l-3.4 0Z" fill="rgb(227,73,2)" fill-opacity="0.3"></path>
<path d="M892.9 271l3.4 0l0 -0.4l-3.4 0Z" fill="rgb(227,73,2)" fill-opacity="0.3"></path>
<path d="M897.9 271l3.4 0l0 -0.2l-3.4 0Z" fill="rgb(227,73,2)" fill-opacity="0.3"></path>
<path d="M902.8 271l3.4 0l0 -0.2l-3.4 0Z" fill="rgb(227,73,2)" fill-opacity="0.3"></path>
<path d="M907.7 271l3.4 0l0 -0.2l-3.4 0Z" fill="rgb(227,73,2)" fill-opacity="0.3"></path>
<path d="M912.7 271l3.4 0l0 -0.2l-3.4 0Z" fill="rgb(227,73,2)" fill-opacity="0.3"></path>
<path d="M917.6 271l3.4 0l0 0l-3.4 0Z" fill="rgb(227,73,2)" fill-opacity="0.3"></path>
<path d="M-5 -5l226.9 0l0 24l-226.9 0Z" transform="translate(391.54 5)" fill="rgb(0,0,0)" fill-opacity="0" stroke="#ccc" stroke-width="0"></path>
<path d="M3.5 0L21.5 0A3.5 3.5 0 0 1 25 3.5L25 10.5A3.5 3.5 0 0 1 21.5 14L3.5 14A3.5 3.5 0 0 1 0 10.5L0 3.5A3.5 3.5 0 0 1 3.5 0" transform="translate(391.54 5)" fill="rgb(227,73,2)" fill-opacity="0.3"></path>
<text dominant-baseline="central" text-anchor="start" style="font-size:12px;font-family:sans-serif;" xml:space="preserve" x="30" y="7" transform="translate(391.54 5)" fill="#333">Times completed</text>
<path d="M0 7L25 7" transform="translate(524.1 5)" fill="#000" stroke="#E34902" stroke-width="2" stroke-linecap="butt" stroke-miterlimit="10"></path>
<path d="M18.1 7A5.6 5.6 0 1 1 18.1 6.4A5.6 5.6 0 0 1 18.1 7" transform="translate(524.1 5)" fill="#fff" stroke="#E34902" stroke-width="2" stroke-linecap="butt" stroke-miterlimit="10"></path>
<text dominant-baseline="central" text-anchor="start" style="font-size:12px;font-family:sans-serif;" x="30" y="7" transform="translate(524.1 5)" fill="#333">Eddington</text>
<path d="M-0.54 -0.89A0.6 0.6 0 1 1 0.54 -0.89C0.39 -0.56 0 -0.42 0 0C0 -0.42 -0.39 -0.56 -0.54 -0.89Z" transform="matrix(25,0,0,25,509.8009,250.175)" fill="rgb(227,73,2)" fill-opacity="0.8"></path>
<text dominant-baseline="central" text-anchor="middle" style="font-size:12px;font-family:sans-serif;" transform="translate(509.8009 224.0321)" fill="#eee" stroke="rgb(227,73,2)" stroke-width="2" paint-order="stroke" stroke-opacity="0.8" stroke-miterlimit="2">90</text>
<g clip-path="url(#zr0-c0)">
<path d="M70.7 270.8L75.6 270.6L80.6 270.5L85.5 270.3L90.4 270.1L95.4 269.9L100.3 269.8L105.2 269.6L110.2 269.4L115.1 269.2L120 269.1L125 268.9L129.9 268.7L134.8 268.5L139.8 268.4L144.7 268.2L149.6 268L154.6 267.8L159.5 267.7L164.4 267.5L169.4 267.3L174.3 267.1L179.2 267L184.2 266.8L189.1 266.6L194 266.4L199 266.3L203.9 266.1L208.8 265.9L213.8 265.7L218.7 265.5L223.6 265.4L228.6 265.2L233.5 265L238.5 264.8L243.4 264.7L248.3 264.5L253.3 264.3L258.2 264.1L263.1 264L268.1 263.8L273 263.6L277.9 263.4L282.9 263.3L287.8 263.1L292.7 262.9L297.7 262.7L302.6 262.6L307.5 262.4L312.5 262.2L317.4 262L322.3 261.9L327.3 261.7L332.2 261.5L337.1 261.3L342.1 261.2L347 261L351.9 260.8L356.9 260.6L361.8 260.5L366.7 260.3L371.7 260.1L376.6 259.9L381.5 259.7L386.5 259.6L391.4 259.4L396.3 259.2L401.3 259L406.2 258.9L411.1 258.7L416.1 258.5L421 258.3L425.9 258.2L430.9 258L435.8 257.8L440.7 257.6L445.7 257.5L450.6 257.3L455.5 257.1L460.5 256.9L465.4 256.8L470.3 256.6L475.3 256.4L480.2 256.2L485.1 256.1L490.1 255.9L495 255.7L499.9 255.5L504.9 255.4L509.8 255.2L514.7 255L519.7 254.8L524.6 254.6L529.5 254.5L534.5 254.3L539.4 254.1L544.3 253.9L549.3 253.8L554.2 253.6L559.1 253.4L564.1 253.2L569 253.1L573.9 252.9L578.9 252.7L583.8 252.5L588.7 252.4L593.7 252.2L598.6 252L603.5 251.8L608.5 251.7L613.4 251.5L618.3 251.3L623.3 251.1L628.2 251L633.1 250.8L638.1 250.6L643 250.4L647.9 250.3L652.9 250.1L657.8 249.9L662.7 249.7L667.7 249.5L672.6 249.4L677.5 249.2L682.5 249L687.4 248.8L692.3 248.7L697.3 248.5L702.2 248.3L707.1 248.1L712.1 248L717 247.8L721.9 247.6L726.9 247.4L731.8 247.3L736.7 247.1L741.7 246.9L746.6 246.7L751.5 246.6L756.5 246.4L761.4 246.2L766.4 246L771.3 245.9L776.2 245.7L781.2 245.5L786.1 245.3L791 245.2L796 245L800.9 244.8L805.8 244.6L810.8 244.4L815.7 244.3L820.6 244.1L825.6 243.9L830.5 243.7L835.4 243.6L840.4 243.4L845.3 243.2L850.2 243L855.2 242.9L860.1 242.7L865 242.5L870 242.3L874.9 242.2L879.8 242L884.8 241.8L889.7 241.6L894.6 241.5L899.6 241.3L904.5 241.1L909.4 240.9L914.4 240.8L919.3 240.6" fill="none" stroke="#E34902" stroke-width="2" stroke-linejoin="bevel"></path>
</g>
<defs >
<clipPath id="zr0-c0">
<path d="M67 59l856 0l0 213l-856 0Z" fill="#000"></path>
</clipPath>
</defs>
</svg>