<svg width="1000" height="300" xmlns="http://www.w3.org/2000/svg" xmlns:xlink="http://www.w3.org/1999/xlink" version="1.1" baseProfile="full" viewBox="0 0 1000 300">
<rect width="1000" height="300" x="0" y="0" id="0" fill="#ffffff"></rect>
<path d="M68.2 271.5L921.8 271.5" fill="none" stroke="#E0E6F1"></path>
<path d="M68.2 224.5L921.8 224.5" fill="none" stroke="#E0E6F1"></path>
<path d="M68.2 178.5L921.8 178.5" fill="none" stroke="#E0E6F1"></path>
<path d="M68.2 132.5L921.8 132.5" fill="none" stroke="#E0E6F1"></path>
<path d="M68.2 85.5L921.8 85.5" fill="none" stroke="#E0E6F1"></path>
<path d="M68.2 60.5L921.8 60.5" fill="none" stroke="#E0E6F1"></path>
<path d="M68.2 271.5L921.8 271.5" fill="none" stroke="#6E7079" stroke-linecap="round"></path>
<path d="M70.5 271L70.5 276" fill="none" stroke="#6E7079"></path>
<path d="M120.5 271L120.5 276" fill="none" stroke="#6E7079"></path>
<path d="M169.5 271L169.5 276" fill="none" stroke="#6E7079"></path>
<path d="M218.5 271L218.5 276" fill="none" stroke="#6E7079"></path>
<path d="M268.5 271L268.5 276" fill="none" stroke="#6E7079"></path>
<path d="M317.5 271L317.5 276" fill="none" stroke="#6E7079"></path>
<path d="M366.5 271L366.5 276" fill="none" stroke="#6E7079"></path>
<path d="M416.5 271L416.5 276" fill="none" stroke="#6E7079"></path>
<path d="M465.5 271L465.5 276" fill="none" stroke="#6E7079"></path>
<path d="M514.5 271L514.5 276" fill="none" stroke="#6E7079"></path>
<path d="M564.5 271L564.5 276" fill="none" stroke="#6E7079"></path>
<path d="M613.5 271L613.5 276" fill="none" stroke="#6E7079"></path>
<path d="M662.5 271L662.5 276" fill="none" stroke="#6E7079"></path>
<path d="M712.5 271L712.5 276" fill="none" stroke="#6E7079"></path>
<path d="M761.5 271L761.5 276" fill="none" stroke="#6E7079"></path>
<path d="M811.5 271L811.5 276" fill="none" stroke="#6E7079"></path>
<path d="M860.5 271L860.5 276" fill="none" stroke="#6E7079"></path>
<path d="M909.5 271L909.5 276" fill="none" stroke="#6E7079"></path>
<text dominant-baseline="central" text-anchor="end" style="font-size:12px;font-family:sans-serif;" transform="translate(60.24 271)" fill="#6E7079">0</text>
<text dominant-baseline="central" text-anchor="end" style="font-size:12px;font-family:sans-serif;" transform="translate(60.24 224.6829)" fill="#6E7079">270</text>
<text dominant-baseline="central" text-anchor="end" style="font-size:12px;font-family:sans-serif;" transform="translate(60.24 178.3659)" fill="#6E7079">540</text>
<text dominant-baseline="central" text-anchor="end" style="font-size:12px;font-family:sans-serif;" transform="translate(60.24 132.0488)" fill="#6E7079">810</text>
<text dominant-baseline="central" text-anchor="end" style="font-size:12px;font-family:sans-serif;" transform="translate(60.24 85.7317)" fill="#6E7079">1,080</text>
<text dominant-baseline="central" text-anchor="end" style="font-size:12px;font-family:sans-serif;" transform="translate(60.24 60)" fill="#6E7079">1,230</text>
<text dominant-baseline="central" text-anchor="start" style="font-size:12px;font-family:sans-serif;" transform="translate(929.76 271)" fill="#6E7079">0</text>
<text dominant-baseline="central" text-anchor="start" style="font-size:12px;font-family:sans-serif;" transform="translate(929.76 224.6829)" fill="#6E7079">270</text>
<text dominant-baseline="central" text-anchor="start" style="font-size:12px;font-family:sans-serif;" transform="translate(929.76 178.3659)" fill="#6E7079">540</text>
<text dominant-baseline="central" text-anchor="start" style="font-size:12px;font-family:sans-serif;" transform="translate(929.76 132.0488)" fill="#6E7079">810</text>
<text dominant-baseline="central" text-anchor="start" style="font-size:12px;font-family:sans-serif;" transform="translate(929.76 85.7317)" fill="#6E7079">1,080</text>
<text dominant-baseline="central" text-anchor="start" style="font-size:12px;font-family:sans-serif;" transform="translate(929.76 60)" fill="#6E7079">1,230</text>
<text dominant-baseline="central" text-anchor="middle" style="font-size:12px;font-family:sans-serif;" y="6" transform="translate(70.7068 279)" fill="#6E7079">1km</text>
<text dominant-baseline="central" text-anchor="middle" style="font-size:12px;font-family:sans-serif;" y="6" transform="translate(120.0432 279)" fill="#6E7079">11km</text>
<text dominant-baseline="central" text-anchor="middle" style="font-size:12px;font-family:sans-serif;" y="6" transform="translate(169.3797 279)" fill="#6E7079">21km</text>
<text dominant-baseline="central" text-anchor="middle" style="font-size:12px;font-family:sans-serif;" y="6" transform="translate(218.7161 279)" fill="#6E7079">31km</text>
<text dominant-baseline="central" text-anchor="middle" style="font-size:12px;font-family:sans-serif;" y="6" transform="translate(268.0525 279)" fill="#6E7079">41km</text>
<text dominant-baseline="central" text-anchor="middle" style="font-size:12px;font-family:sans-serif;" y="6" transform="translate(317.3889 279)" fill="#6E7079">51km</text>
<text dominant-baseline="central" text-anchor="middle" style="font-size:12px;font-family:sans-serif;" y="6" transform="translate(366.7253 279)" fill="#6E7079">61km</text>
<text dominant-baseline="central" text-anchor="middle" style="font-size:12px;font-family:sans-serif;" y="6" transform="translate(416.0617 279)" fill="#6E7079">71km</text>
<text dominant-baseline="central" text-anchor="middle" style="font-size:12px;font-family:sans-serif;" y="6" transform="translate(465.3982 279)" fill="#6E7079">81km</text>
<text dominant-baseline="central" text-anchor="middle" style="font-size:12px;font-family:sans-serif;" y="6" transform="translate(514.7346 279)" fill="#6E7079">91km</text>
<text dominant-baseline="central" text-anchor="middle" style="font-size:12px;font-family:sans-serif;" y="6" transform="translate(564.071 279)" fill="#6E7079">101km</text>
<text dominant-baseline="central" text-anchor="middle" style="font-size:12px;font-family:sans-serif;" y="6" transform="translate(613.4074 279)" fill="#6E7079">111km</text>
<text dominant-baseline="central" text-anchor="middle" style="font-size:12px;font-family:sans-serif;" y="6" transform="translate(662.7438 279)" fill="#6E7079">121km</text>
<text dominant-baseline="central" text-anchor="middle" style="font-size:12px;font-family:sans-serif;" y="6" transform="translate(712.0802 279)" fill="#6E7079">131km</text>
<text dominant-baseline="central" text-anchor="middle" style="font-size:12px;font-family:sans-serif;" y="6" transform="translate(761.4166 279)" fill="#6E7079">141km</text>
<text dominant-baseline="central" text-anchor="middle" style="font-size:12px;font-family:sans-serif;" y="6" transform="translate(810.7531 279)" fill="#6E7079">151km</text>
<text dominant-baseline="central" text-anchor="middle" style="font-size:12px;font-family:sans-serif;" y="6" transform="translate(860.0895 279)" fill="#6E7079">161km</text>
<text dominant-baseline="central" text-anchor="middle" style="font-size:12px;font-family:sans-serif;" y="6" transform="translate(909.4259 279)" fill="#6E7079">171km</text>
<path d="M69 271l3.4 0l0 -208.4l-3.4 0Z" fill="rgb(227,73,2)" fill-opacity="0.3"></path>
<path d="M73.9 271l3.4 0l0 -208.1l-3.4 0Z" fill="rgb(227,73,2)" fill-opacity="0.3"></path>
<path d="M78.9 271l3.4 0l0 -207.9l-3.4 0Z" fill="rgb(227,73,2)" fill-opacity="0.3"></path>
<path d="M83.8 271l3.4 0l0 -207.7l-3.4 0Z" fill="rgb(227,73,2)" fill-opacity="0.3"></path>
<path d="M88.7 271l3.4 0l0 -207.1l-3.4 0Z" fill="rgb(227,73,2)" fill-opacity="0.3"></path>
<path d="M93.7 271l3.4 0l0 -206.9l-3.4 0Z" fill="rgb(227,73,2)" fill-opacity="0.3"></path>
<path d="M98.6 271l3.4 0l0 -206.5l-3.4 0Z" fill="rgb(227,73,2)" fill-opacity="0.3"></path>
<path d="M103.5 271l3.4 0l0 -205.5l-3.4 0Z" fill="rgb(227,73,2)" fill-opacity="0.3"></path>
<path d="M108.5 271l3.4 0l0 -205l-3.4 0Z" fill="rgb(227,73,2)" fill-opacity="0.3"></path>
<path d="M113.4 271l3.4 0l0 -204.7l-3.4 0Z" fill="rgb(227,73,2)" fill-opacity="0.3"></path>
<path d="M118.3 271l3.4 0l0 -204.1l-3.4 0Z" fill="rgb(227,73,2)" fill-opacity="0.3"></path>
<path d="M123.3 271l3.4 0l0 -203.8l-3.4 0Z" fill="rgb(227,73,2)" fill-opacity="0.3"></path>
<path d="M128.2 271l3.4 0l0 -203.1l-3.4 0Z" fill="rgb(227,73,2)" fill-opacity="0.3"></path>
<path d="M133.1 271l3.4 0l0 -202.1l-3.4 0Z" fill="rgb(227,73,2)" fill-opacity="0.3"></path>
<path d="M138.1 271l3.4 0l0 -200.7l-3.4 0Z" fill="rgb(227,73,2)" fill-opacity="0.3"></path>
<path d="M143 271l3.4 0l0 -199.2l-3.4 0Z" fill="rgb(227,73,2)" fill-opacity="0.3"></path>
<path d="M147.9 271l3.4 0l0 -197.8l-3.4 0Z" fill="rgb(227,73,2)" fill-opacity="0.3"></path>
<path d="M152.9 271l3.4 0l0 -195.6l-3.4 0Z" fill="rgb(227,73,2)" fill-opacity="0.3"></path>
<path d="M157.8 271l3.4 0l0 -192l-3.4 0Z" fill="rgb(227,73,2)" fill-opacity="0.3"></path>
<path d="M162.7 271l3.4 0l0 -190.1l-3.4 0Z" fill="rgb(227,73,2)" fill-opacity="0.3"></path>
<path d="M167.7 271l3.4 0l0 -186.8l-3.4 0Z" fill="rgb(227,73,2)" fill-opacity="0.3"></path>
<path d="M172.6 271l3.4 0l0 -182.5l-3.4 0Z" fill="rgb(227,73,2)" fill-opacity="0.3"></path>
<path d="M177.5 271l3.4 0l0 -179.1l-3.4 0Z" fill="rgb(227,73,2)" fill-opacity="0.3"></path>
<path d="M182.5 271l3.4 0l0 -174.6l-3.4 0Z" fill="rgb(227,73,2)" fill-opacity="0.3"></path>
<path d="M187.4 271l3.4 0l0 -169l-3.4 0Z" fill="rgb(227,73,2)" fill-opacity="0.3"></path>
<path d="M192.3 271l3.4 0l0 -163.5l-3.4 0Z" fill="rgb(227,73,2)" fill-opacity="0.3"></path>
<path d="M197.3 271l3.4 0l0 -158.7l-3.4 0Z" fill="rgb(227,73,2)" fill-opacity="0.3"></path>
<path d="M202.2 271l3.4 0l0 -153.7l-3.4 0Z" fill="rgb(227,73,2)" fill-opacity="0.3"></path>
<path d="M207.1 271l3.4 0l0 -148.2l-3.4 0Z" fill="rgb(227,73,2)" fill-opacity="0.3"></path>
<path d="M212.1 271l3.4 0l0 -144.3l-3.4 0Z" fill="rgb(227,73,2)" fill-opacity="0.3"></path>
<path d="M217 271l3.4 0l0 -138.4l-3.4 0Z" fill="rgb(227,73,2)" fill-opacity="0.3"></path>
<path d="M221.9 271l3.4 0l0 -133.3l-3.4 0Z" fill="rgb(227,73,2)" fill-opacity="0.3"></path>
<path d="M226.9 271l3.4 0l0 -129.2l-3.4 0Z" fill="rgb(227,73,2)" fill-opacity="0.3"></path>
<path d="M231.8 271l3.4 0l0 -125.7l-3.4 0Z" fill="rgb(227,73,2)" fill-opacity="0.3"></path>
<path d="M236.7 271l3.4 0l0 -123.2l-3.4 0Z" fill="rgb(227,73,2)" fill-opacity="0.3"></path>
<path d="M241.7 271l3.4 0l0 -118.2l-3.4 0Z" fill="rgb(227,73,2)" fill-opacity="0.3"></path>
<path d="M246.6 271l3.4 0l0 -114.1l-3.4 0Z" fill="rgb(227,73,2)" fill-opacity="0.3"></path>
<path d="M251.5 271l3.4 0l0 -110.6l-3.4 0Z" fill="rgb(227,73,2)" fill-opacity="0.3"></path>
<path d="M256.5 271l3.4 0l0 -108.8l-3.4 0Z" fill="rgb(227,73,2)" fill-opacity="0.3"></path>
<path d="M261.4 271l3.4 0l0 -105.2l-3.4 0Z" fill="rgb(227,73,2)" fill-opacity="0.3"></path>
<path d="M266.4 271l3.4 0l0 -102.1l-3.4 0Z" fill="rgb(227,73,2)" fill-opacity="0.3"></path>
<path d="M271.3 271l3.4 0l0 -98.5l-3.4 0Z" fill="rgb(227,73,2)" fill-opacity="0.3"></path>
<path d="M276.2 271l3.4 0l0 -94.3l-3.4 0Z" fill="rgb(227,73,2)" fill-opacity="0.3"></path>
<path d="M281.2 271l3.4 0l0 -90.7l-3.4 0Z" fill="rgb(227,73,2)" fill-opacity="0.3"></path>
<path d="M286.1 271l3.4 0l0 -87l-3.4 0Z" fill="rgb(227,73,2)" fill-opacity="0.3"></path>
<path d="M291 271l3.4 0l0 -83.2l-3.4 0Z" fill="rgb(227,73,2)" fill-opacity="0.3"></path>
<path d="M296 271l3.4 0l0 -80.1l-3.4 0Z" fill="rgb(227,73,2)" fill-opacity="0.3"></path>
<path d="M300.9 271l3.4 0l0 -76.7l-3.4 0Z" fill="rgb(227,73,2)" fill-opacity="0.3"></path>
<path d="M305.8 271l3.4 0l0 -73.9l-3.4 0Z" fill="rgb(227,73,2)" fill-opacity="0.3"></path>
<path d="M310.8 271l3.4 0l0 -71.4l-3.4 0Z" fill="rgb(227,73,2)" fill-opacity="0.3"></path>
<path d="M315.7 271l3.4 0l0 -68.4l-3.4 0Z" fill="rgb(227,73,2)" fill-opacity="0.3"></path>
<path d="M320.6 271l3.4 0l0 -66.7l-3.4 0Z" fill="rgb(227,73,2)" fill-opacity="0.3"></path>
<path d="M325.6 271l3.4 0l0 -64.7l-3.4 0Z" fill="rgb(227,73,2)" fill-opacity="0.3"></path>
<path d="M330.5 271l3.4 0l0 -61.8l-3.4 0Z" fill="rgb(227,73,2)" fill-opacity="0.3"></path>
<path d="M335.4 271l3.4 0l0 -59.2l-3.4 0Z" fill="rgb(227,73,2)" fill-opacity="0.3"></path>
<path d="M340.4 271l3.4 0l0 -57l-3.4 0Z" fill="rgb(227,73,2)" fill-opacity="0.3"></path>
<path d="M345.3 271l3.4 0l0 -54.4l-3.4 0Z" fill="rgb(227,73,2)" fill-opacity="0.3"></path>
<path d="M350.2 271l3.4 0l0 -53l-3.4 0Z" fill="rgb(227,73,2)" fill-opacity="0.3"></path>
<path d="M355.2 271l3.4 0l0 -51.8l-3.4 0Z" fill="rgb(227,73,2)" fill-opacity="0.3"></path>
<path d="M360.1 271l3.4 0l0 -50.6l-3.4 0Z" fill="rgb(227,73,2)" fill-opacity="0.3"></path>
<path d="M365 271l3.4 0l0 -47.9l-3.4 0Z" fill="rgb(227,73,2)" fill-opacity="0.3"></path>
<path d="M370 271l3.4 0l0 -46l-3.4 0Z" fill="rgb(227,73,2)" fill-opacity="0.3"></path>
<path d="M374.9 271l3.4 0l0 -43.7l-3.4 0Z" fill="rgb(227,73,2)" fill-opacity="0.3"></path>
<path d="M379.8 271l3.4 0l0 -42.5l-3.4 0Z" fill="rgb(227,73,2)" fill-opacity="0.3"></path>
<path d="M384.8 271l3.4 0l0 -41.3l-3.4 0Z" fill="rgb(227,73,2)" fill-opacity="0.3"></path>
<path d="M389.7 271l3.4 0l0 -39.6l-3.4 0Z" fill="rgb(227,73,2)" fill-opacity="0.3"></path>
<path d="M394.6 271l3.4 0l0 -38.1l-3.4 0Z" fill="rgb(227,73,2)" fill-opacity="0.3"></path>
<path d="M399.6 271l3.4 0l0 -36l-3.4 0Z" fill="rgb(227,73,2)" fill-opacity="0.3"></path>
<path d="M404.5 271l3.4 0l0 -34.8l-3.4 0Z" fill="rgb(227,73,2)" fill-opacity="0.3"></path>
<path d="M409.4 271l3.4 0l0 -33.3l-3.4 0Z" fill="rgb(227,73,2)" fill-opacity="0.3"></path>
<path d="M414.4 271l3.4 0l0 -31.4l-3.4 0Z" fill="rgb(227,73,2)" fill-opacity="0.3"></path>
<path d="M419.3 271l3.4 0l0 -29.8l-3.4 0Z" fill="rgb(227,73,2)" fill-opacity="0.3"></path>
<path d="M424.2 271l3.4 0l0 -29.3l-3.4 0Z" fill="rgb(227,73,2)" fill-opacity="0.3"></path>
<path d="M429.2 271l3.4 0l0 -27.8l-3.4 0Z" fill="rgb(227,73,2)" fill-opacity="0.3"></path>
<path d="M434.1 271l3.4 0l0 -26.8l-3.4 0Z" fill="rgb(227,73,2)" fill-opacity="0.3"></path>
<path d="M439 271l3.4 0l0 -25.2l-3.4 0Z" fill="rgb(227,73,2)" fill-opacity="0.3"></path>
<path d="M444 271l3.4 0l0 -24l-3.4 0Z" fill="rgb(227,73,2)" fill-opacity="0.3"></path>
<path d="M448.9 271l3.4 0l0 -23.8l-3.4 0Z" fill="rgb(227,73,2)" fill-opacity="0.3"></path>
<path d="M453.8 271l3.4 0l0 -23.3l-3.4 0Z" fill="rgb(227,73,2)" fill-opacity="0.3"></path>
<path d="M458.8 271l3.4 0l0 -22.3l-3.4 0Z" fill="rgb(227,73,2)" fill-opacity="0.3"></path>
<path d="M463.7 271l3.4 0l0 -21.3l-3.4 0Z" fill="rgb(227,73,2)" fill-opacity="0.3"></path>
<path d="M468.6 271l3.4 0l0 -20.1l-3.4 0Z" fill="rgb(227,73,2)" fill-opacity="0.3"></path>
<path d="M473.6 271l3.4 0l0 -19.9l-3.4 0Z" fill="rgb(227,73,2)" fill-opacity="0.3"></path>
<path d="M478.5 271l3.4 0l0 -19.6l-3.4 0Z" fill="rgb(227,73,2)" fill-opacity="0.3"></path>
<path d="M483.4 271l3.4 0l0 -19l-3.4 0Z" fill="rgb(227,73,2)" fill-opacity="0.3"></path>
<path d="M488.4 271l3.4 0l0 -18.5l-3.4 0Z" fill="rgb(227,73,2)" fill-opacity="0.3"></path>
<path d="M493.3 271l3.4 0l0 -17.8l-3.4 0Z" fill="rgb(227,73,2)" fill-opacity="0.3"></path>
<path d="M498.2 271l3.4 0l0 -17.3l-3.4 0Z" fill="rgb(227,73,2)" fill-opacity="0.3"></path>
<path d="M503.2 271l3.4 0l0 -16.5l-3.4 0Z" fill="rgb(227,73,2)" fill-opacity="0.3"></path>
<path d="M508.1 271l3.4 0l0 -16.1l-3.4 0Z" fill="rgb(227,73,2)" fill-opacity="0.8"></path>
<path d="M513 271l3.4 0l0 -15.4l-3.4 0Z" fill="rgb(227,73,2)" fill-opacity="0.3"></path>
<path d="M518 271l3.4 0l0 -15.1l-3.4 0Z" fill="rgb(227,73,2)" fill-opacity="0.3"></path>
<path d="M522.9 271l3.4 0l0 -14.4l-3.4 0Z" fill="rgb(227,73,2)" fill-opacity="0.3"></path>
<path d="M527.8 271l3.4 0l0 -13.4l-3.4 0Z" fill="rgb(227,73,2)" fill-opacity="0.3"></path>
<path d="M532.8 271l3.4 0l0 -13l-3.4 0Z" fill="rgb(227,73,2)" fill-opacity="0.3"></path>
<path d="M537.7 271l3.4 0l0 -12.9l-3.4 0Z" fill="rgb(227,73,2)" fill-opacity="0.3"></path>
<path d="M542.6 271l3.4 0l0 -12.5l-3.4 0Z" fill="rgb(227,73,2)" fill-opacity="0.3"></path>
<path d="M547.6 271l3.4 0l0 -12.4l-3.4 0Z" fill="rgb(227,73,2)" fill-opacity="0.3"></path>
<path d="M552.5 271l3.4 0l0 -11.8l-3.4 0Z" fill="rgb(227,73,2)" fill-opacity="0.3"></path>
<path d="M557.4 271l3.4 0l0 -11.3l-3.4 0Z" fill="rgb(227,73,2)" fill-opacity="0.3"></path>
<path d="M562.4 271l3.4 0l0 -10.6l-3.4 0Z" fill="rgb(227,73,2)" fill-opacity="0.3"></path>
<path d="M567.3 271l3.4 0l0 -9.9l-3.4 0Z" fill="rgb(227,73,2)" fill-opacity="0.3"></path>
<path d="M572.2 271l3.4 0l0 -9.6l-3.4 0Z" fill="rgb(227,73,2)" fill-opacity="0.3"></path>
<path d="M577.2 271l3.4 0l0 -9.4l-3.4 0Z" fill="rgb(227,73,2)" fill-opacity="0.3"></path>
<path d="M582.1 271l3.4 0l0 -9.1l-3.4 0Z" fill="rgb(227,73,2)" fill-opacity="0.3"></path>
<path d="M587 271l3.4 0l0 -8.6l-3.4 0Z" fill="rgb(227,73,2)" fill-opacity="0.3"></path>
<path d="M592 271l3.4 0l0 -8.2l-3.4 0Z" fill="rgb(227,73,2)" fill-opacity="0.3"></path>
<path d="M596.9 271l3.4 0l0 -8.1l-3.4 0Z" fill="rgb(227,73,2)" fill-opacity="0.3"></path>
<path d="M601.8 271l3.4 0l0 -8.1l-3.4 0Z" fill="rgb(227,73,2)" fill-opacity="0.3"></path>
<path d="M606.8 271l3.4 0l0 -7.9l-3.4 0Z" fill="rgb(227,73,2)" fill-opacity="0.3"></path>
<path d="M611.7 271l3.4 0l0 -7.4l-3.4 0Z" fill="rgb(227,73,2)" fill-opacity="0.3"></path>
<path d="M616.6 271l3.4 0l0 -7.4l-3.4 0Z" fill="rgb(227,73,2)" fill-opacity="0.3"></path>
<path d="M621.6 271l3.4 0l0 -7.4l-3.4 0Z" fill="rgb(227,73,2)" fill-opacity="0.3"></path>
<path d="M626.5 271l3.4 0l0 -7l-3.4 0Z" fill="rgb(227,73,2)" fill-opacity="0.3"></path>
<path d="M631.4 271l3.4 0l0 -6.9l-3.4 0Z" fill="rgb(227,73,2)" fill-opacity="0.3"></path>
<path d="M636.4 271l3.4 0l0 -6.9l-3.4 0Z" fill="rgb(227,73,2)" fill-opacity="0.3"></path>
<path d="M641.3 271l3.4 0l0 -6.7l-3.4 0Z" fill="rgb(227,73,2)" fill-opacity="0.3"></path>
<path d="M646.2 271l3.4 0l0 -6.2l-3.4 0Z" fill="rgb(227,73,2)" fill-opacity="0.3"></path>
<path d="M651.2 271l3.4 0l0 -5.5l-3.4 0Z" fill="rgb(227,73,2)" fill-opacity="0.3"></path>
<path d="M656.1 271l3.4 0l0 -5.3l-3.4 0Z" fill="rgb(227,73,2)" fill-opacity="0.3"></path>
<path d="M661 271l3.4 0l0 -5.1l-3.4 0Z" fill="rgb(227,73,2)" fill-opacity="0.3"></path>
<path d="M666 271l3.4 0l0 -5.1l-3.4 0Z" fill="rgb(227,73,2)" fill-opacity="0.3"></path>
<path d="M670.9 271l3.4 0l0 -5l-3.4 0Z" fill="rgb(227,73,2)" fill-opacity="0.3"></path>
<path d="M675.8 271l3.4 0l0 -5l-3.4 0Z" fill="rgb(227,73,2)" fill-opacity="0.3"></path>
<path d="M680.8 271l3.4 0l0 -5l-3.4 0Z" fill="rgb(227,73,2)" fill-opacity="0.3"></path>
<path d="M685.7 271l3.4 0l0 -5l-3.4 0Z" fill="rgb(227,73,2)" fill-opacity="0.3"></path>
<path d="M690.6 271l3.4 0l0 -4.8l-3.4 0Z" fill="rgb(227,73,2)" fill-opacity="0.3"></path>
<path d="M695.6 271l3.4 0l0 -4.6l-3.4 0Z" fill="rgb(227,73,2)" fill-opacity="0.3"></path>
<path d="M700.5 271l3.4 0l0 -4.5l-3.4 0Z" fill="rgb(227,73,2)" fill-opacity="0.3"></path>
<path d="M705.4 271l3.4 0l0 -4.5l-3.4 0Z" fill="rgb(227,73,2)" fill-opacity="0.3"></path>
<path d="M710.4 271l3.4 0l0 -4.1l-3.4 0Z" fill="rgb(227,73,2)" fill-opacity="0.3"></path>
<path d="M715.3 271l3.4 0l0 -3.8l-3.4 0Z" fill="rgb(227,73,2)" fill-opacity="0.3"></path>
<path d="M720.2 271l3.4 0l0 -3.3l-3.4 0Z" fill="rgb(227,73,2)" fill-opacity="0.3"></path>
<path d="M725.2 271l3.4 0l0 -2.9l-3.4 0Z" fill="rgb(227,73,2)" fill-opacity="0.3"></path>
<path d="M730.1 271l3.4 0l0 -2.7l-3.4 0Z" fill="rgb(227,73,2)" fill-opacity="0.3"></path>
<path d="M735 271l3.4 0l0 -2.6l-3.4 0Z" fill="rgb(227,73,2)" fill-opacity="0.3"></path>
<path d="M740 271l3.4 0l0 -2.4l-3.4 0Z" fill="rgb(227,73,2)" fill-opacity="0.3"></path>
<path d="M744.9 271l3.4 0l0 -2.2l-3.4 0Z" fill="rgb(227,73,2)" fill-opacity="0.3"></path>
<path d="M749.8 271l3.4 0l0 -2.1l-3.4 0Z" fill="rgb(227,73,2)" fill-opacity="0.3"></path>
<path d="M754.8 271l3.4 0l0 -1.9l-3.4 0Z" fill="rgb(227,73,2)" fill-opacity="0.3"></path>
<path d="M759.7 271l3.4 0l0 -1.9l-3.4 0Z" fill="rgb(227,73,2)" fill-opacity="0.3"></path>
<path d="M764.6 271l3.4 0l0 -1.5l-3.4 0Z" fill="rgb(227,73,2)" fill-opacity="0.3"></path>
<path d="M769.6 271l3.4 0l0 -1.5l-3.4 0Z" fill="rgb(227,73,2)" fill-opacity="0.3"></path>
<path d="M774.5 271l3.4 0l0 -1.5l-3.4 0Z" fill="rgb(227,73,2)" fill-opacity="0.3"></path>
<path d="M779.4 271l3.4 0l0 -1.4l-3.4 0Z" fill="rgb(227,73,2)" fill-opacity="0.3"></path>
<path d="M784.4 271l3.4 0l0 -1.2l-3.4 0Z" fill="rgb(227,73,2)" fill-opacity="0.3"></path>
<path d="M789.3 271l3.4 0l0 -1l-3.4 0Z" fill="rgb(227,73,2)" fill-opacity="0.3"></path>
<path d="M794.3 271l3.4 0l0 -1l-3.4 0Z" fill="rgb(227,73,2)" fill-opacity="0.3"></path>
<path d="M799.2 271l3.4 0l0 -1l-3.4 0Z" fill="rgb(227,73,2)" fill-opacity="0.3"></path>
<path d="M804.1 271l3.4 0l0 -0.9l-3.4 0Z" fill="rgb(227,73,2)" fill-opacity="0.3"></path>
<path d="M809.1 271l3.4 0l0 -0.9l-3.4 0Z" fill="rgb(227,73,2)" fill-opacity="0.3"></path>
<path d="M814 271l3.4 0l0 -0.9l-3.4 0Z" fill="rgb(227,73,2)" fill-opacity="0.3"></path>
<path d="M818.9 271l3.4 0l0 -0.9l-3.4 0Z" fill="rgb(227,73,2)" fill-opacity="0.3"></path>
<path d="M823.9 271l3.4 0l0 -0.9l-3.4 0Z" fill="rgb(227,73,2)" fill-opacity="0.3"></path>
<path d="M828.8 271l3.4 0l0 -0.9l-3.4 0Z" fill="rgb(227,73,2)" fill-opacity="0.3"></path>
<path d="M833.7 271l3.4 0l0 -0.7l-3.4 0Z" fill="rgb(227,73,2)" fill-opacity="0.3"></path>
<path d="M838.7 271l3.4 0l0 -0.7l-3.4 0Z" fill="rgb(227,73,2)" fill-opacity="0.3"></path>
<path d="M843.6 271l3.4 0l0 -0.7l-3.4 0Z" fill="rgb(227,73,2)" fill-opacity="0.3"></path>
<path d="M848.5 271l3.4 0l0 -0.7l-3.4 0Z" fill="rgb(227,73,2)" fill-opacity="0.3"></path>
<path d="M853.5 271l3.4 0l0 -0.7l-3.4 0Z" fill="rgb(227,73,2)" fill-opacity="0.3"></path>
<path d="M858.4 271l3.4 0l0 -0.7l-3.4 0Z" fill="rgb(227,73,2)" fill-opacity="0.3"></path>
<path d="M863.3 271l3.4 0l0 -0.7l-3.4 0Z" fill="rgb(227,73,2)" fill-opacity="0.3"></path>
<path d="M868.3 271l3.4 0l0 -0.7l-3.4 0Z" fill="rgb(227,73,2)" fill-opacity="0.3"></path>
<path d="M873.2 271l3.4 0l0 -0.7l-3.4 0Z" fill="rgb(227,73,2)" fill-opacity="0.3"></path>
<path d="M878.1 271l3.4 0l0 -0.5l-3.4 0Z" fill="rgb(227,73,2)" fill-opacity="0.3"></path>
<path d="M883.1 271l3.4 0l0 -0.5l-3.4 0Z" fill="rgb(227,73,2)" fill-opacity="0.3"></path>
<path d="M888 271l3.4 0l0 -0.5l-3.4 0Z" fill="rgb(227,73,2)" fill-opacity="0.3"></path>
<path d="M892.9 271l3.4 0l0 -0.3l-3.4 0Z" fill="rgb(227,73,2)" fill-opacity="0.3"></path>
<path d="M897.9 271l3.4 0l0 -0.2l-3.4 0Z" fill="rgb(227,73,2)" fill-opacity="0.3"></path>
<path d="M902.8 271l3.4 0l0 -0.2l-3.4 0Z" fill="rgb(227,73,2)" fill-opacity="0.3"></path>
<path d="M907.7 271l3.4 0l0 -0.2l-3.4 0Z" fill="rgb(227,73,2)" fill-opacity="0.3"></path>
<path d="M912.7 271l3.4 0l0 -0.2l-3.4 0Z" fill="rgb(227,73,2)" fill-opacity="0.3"></path>
<path d="M917.6 271l3.4 0l0 0l-3.4 0Z" fill="rgb(227,73,2)" fill-opacity="0.3"></path>
<path d="M-5 -5l226.9 0l0 24l-226.9 0Z" transform="translate(391.54 5)" fill="rgb(0,0,0)" fill-opacity="0" stroke="#ccc" stroke-width="0"></path>
<path d="M3.5 0L21.5 0A3.5 3.5 0 0 1 25 3.5L25 10.5A3.5 3.5 0 0 1 21.5 14L3.5 14A3.5 3.5 0 0 1 0 10.5L0 3.5A3.5 3.5 0 0 1 3.5 0" transform="translate(391.54 5)" fill="rgb(227,73,2)" fill-opacity="0.3"></path>
<text dominant-baseline="central" text-anchor="start" style="font-size:12px;font-family:sans-serif;" xml:space="preserve" x="30" y="7" transform="translate(391.54 5)" fill="#333">Times completed</text>
<path d="M0 7L25 7" transform="translate(524.1 5)" fill="#000" stroke="#E34902" stroke-width="2" stroke-linecap="butt" stroke-miterlimit="10"></path>
<path d="M18.1 7A5.6 5.6 0 1 1 18.1 6.4A5.6 5.6 0 0 1 18.1 7" transform="translate(524.1 5)" fill="#fff" stroke="#E34902" stroke-width="2" stroke-linecap="butt" stroke-miterlimit="10"></path>
<text dominant-baseline="central" text-anchor="start" style="font-size:12px;font-family:sans-serif;" x="30" y="7" transform="translate(524.1 5)" fill="#333">Eddington</text>
<path d="M-0.54 -0.89A0.6 0.6 0 1 1 0.54 -0.89C0.39 -0.56 0 -0.42 0 0C0 -0.42 -0.39 -0.56 -0.54 -0.89Z" transform="matrix(25,0,0,25,509.8009,250.0463)" fill="rgb(227,73,2)" fill-opacity="0.8"></path>
<text dominant-baseline="central" text-anchor="middle" style="font-size:12px;font-family:sans-serif;" transform="translate(509.8009 223.9035)" fill="#eee" stroke="rgb(227,73,2)" stroke-width="2" paint-order="stroke" stroke-opacity="0.8" stroke-miterlimit="2">90</text>
<g clip-path="url(#zr0-c0)">
<path d="M70.7 270.8L75.6 270.7L80.6 270.5L85.5 270.3L90.4 270.1L95.4 270L100.3 269.8L105.2 269.6L110.2 269.5L115.1 269.3L120 269.1L125 268.9L129.9 268.8L134.8 268.6L139.8 268.4L144.7 268.3L149.6 268.1L154.6 267.9L159.5 267.7L164.4 267.6L169.4 267.4L174.3 267.2L179.2 267.1L184.2 266.9L189.1 266.7L194 266.5L199 266.4L203.9 266.2L208.8 266L213.8 265.9L218.7 265.7L223.6 265.5L228.6 265.3L233.5 265.2L238.5 265L243.4 264.8L248.3 264.7L253.3 264.5L258.2 264.3L263.1 264.1L268.1 264L273 263.8L277.9 263.6L282.9 263.5L287.8 263.3L292.7 263.1L297.7 262.9L302.6 262.8L307.5 262.6L312.5 262.4L317.4 262.3L322.3 262.1L327.3 261.9L332.2 261.7L337.1 261.6L342.1 261.4L347 261.2L351.9 261.1L356.9 260.9L361.8 260.7L366.7 260.5L371.7 260.4L376.6 260.2L381.5 260L386.5 259.8L391.4 259.7L396.3 259.5L401.3 259.3L406.2 259.2L411.1 259L416.1 258.8L421 258.6L425.9 258.5L430.9 258.3L435.8 258.1L440.7 258L445.7 257.8L450.6 257.6L455.5 257.4L460.5 257.3L465.4 257.1L470.3 256.9L475.3 256.8L480.2 256.6L485.1 256.4L490.1 256.2L495 256.1L499.9 255.9L504.9 255.7L509.8 255.6L514.7 255.4L519.7 255.2L524.6 255L529.5 254.9L534.5 254.7L539.4 254.5L544.3 254.4L549.3 254.2L554.2 254L559.1 253.8L564.1 253.7L569 253.5L573.9 253.3L578.9 253.2L583.8 253L588.7 252.8L593.7 252.6L598.6 252.5L603.5 252.3L608.5 252.1L613.4 252L618.3 251.8L623.3 251.6L628.2 251.4L633.1 251.3L638.1 251.1L643 250.9L647.9 250.8L652.9 250.6L657.8 250.4L662.7 250.2L667.7 250.1L672.6 249.9L677.5 249.7L682.5 249.6L687.4 249.4L692.3 249.2L697.3 249L702.2 248.9L707.1 248.7L712.1 248.5L717 248.4L721.9 248.2L726.9 248L731.8 247.8L736.7 247.7L741.7 247.5L746.6 247.3L751.5 247.2L756.5 247L761.4 246.8L766.4 246.6L771.3 246.5L776.2 246.3L781.2 246.1L786.1 246L791 245.8L796 245.6L800.9 245.4L805.8 245.3L810.8 245.1L815.7 244.9L820.6 244.8L825.6 244.6L830.5 244.4L835.4 244.2L840.4 244.1L845.3 243.9L850.2 243.7L855.2 243.6L860.1 243.4L865 243.2L870 243L874.9 242.9L879.8 242.7L884.8 242.5L889.7 242.4L894.6 242.2L899.6 242L904.5 241.8L909.4 241.7L914.4 241.5L919.3 241.3" fill="none" stroke="#E34902" stroke-width="2" stroke-linejoin="bevel"></path>
</g>
<defs >
<clipPath id="zr0-c0">
<path d="M67 59l856 0l0 213l-856 0Z" fill="#000"></path>
</clipPath>
</defs>
</svg>