<svg width="1000" height="300" xmlns="http://www.w3.org/2000/svg" xmlns:xlink="http://www.w3.org/1999/xlink" version="1.1" baseProfile="full" viewBox="0 0 1000 300">
<rect width="1000" height="300" x="0" y="0" id="0" fill="#ffffff"></rect>
<path d="M68.2 271.5L921.8 271.5" fill="none" stroke="#E0E6F1"></path>
<path d="M68.2 227.5L921.8 227.5" fill="none" stroke="#E0E6F1"></path>
<path d="M68.2 184.5L921.8 184.5" fill="none" stroke="#E0E6F1"></path>
<path d="M68.2 141.5L921.8 141.5" fill="none" stroke="#E0E6F1"></path>
<path d="M68.2 98.5L921.8 98.5" fill="none" stroke="#E0E6F1"></path>
<path d="M68.2 60.5L921.8 60.5" fill="none" stroke="#E0E6F1"></path>
<path d="M68.2 271.5L921.8 271.5" fill="none" stroke="#6E7079" stroke-linecap="round"></path>
<path d="M70.5 271L70.5 276" fill="none" stroke="#6E7079"></path>
<path d="M120.5 271L120.5 276" fill="none" stroke="#6E7079"></path>
<path d="M169.5 271L169.5 276" fill="none" stroke="#6E7079"></path>
<path d="M218.5 271L218.5 276" fill="none" stroke="#6E7079"></path>
<path d="M268.5 271L268.5 276" fill="none" stroke="#6E7079"></path>
<path d="M317.5 271L317.5 276" fill="none" stroke="#6E7079"></path>
<path d="M366.5 271L366.5 276" fill="none" stroke="#6E7079"></path>
<path d="M416.5 271L416.5 276" fill="none" stroke="#6E7079"></path>
<path d="M465.5 271L465.5 276" fill="none" stroke="#6E7079"></path>
<path d="M514.5 271L514.5 276" fill="none" stroke="#6E7079"></path>
<path d="M564.5 271L564.5 276" fill="none" stroke="#6E7079"></path>
<path d="M613.5 271L613.5 276" fill="none" stroke="#6E7079"></path>
<path d="M662.5 271L662.5 276" fill="none" stroke="#6E7079"></path>
<path d="M712.5 271L712.5 276" fill="none" stroke="#6E7079"></path>
<path d="M761.5 271L761.5 276" fill="none" stroke="#6E7079"></path>
<path d="M811.5 271L811.5 276" fill="none" stroke="#6E7079"></path>
<path d="M860.5 271L860.5 276" fill="none" stroke="#6E7079"></path>
<path d="M909.5 271L909.5 276" fill="none" stroke="#6E7079"></path>
<text dominant-baseline="central" text-anchor="end" style="font-size:12px;font-family:sans-serif;" transform="translate(60.24 271)" fill="#6E7079">0</text>
<text dominant-baseline="central" text-anchor="end" style="font-size:12px;font-family:sans-serif;" transform="translate(60.24 227.7179)" fill="#6E7079">240</text>
<text dominant-baseline="central" text-anchor="end" style="font-size:12px;font-family:sans-serif;" transform="translate(60.24 184.4359)" fill="#6E7079">480</text>
<text dominant-baseline="central" text-anchor="end" style="font-size:12px;font-family:sans-serif;" transform="translate(60.24 141.1538)" fill="#6E7079">720</text>
<text dominant-baseline="central" text-anchor="end" style="font-size:12px;font-family:sans-serif;" transform="translate(60.24 97.8718)" fill="#6E7079">960</text>
<text dominant-baseline="central" text-anchor="end" style="font-size:12px;font-family:sans-serif;" transform="translate(60.24 60)" fill="#6E7079">1,170</text>
<text dominant-baseline="central" text-anchor="start" style="font-size:12px;font-family:sans-serif;" transform="translate(929.76 271)" fill="#6E7079">0</text>
<text dominant-baseline="central" text-anchor="start" style="font-size:12px;font-family:sans-serif;" transform="translate(929.76 227.7179)" fill="#6E7079">240</text>
<text dominant-baseline="central" text-anchor="start" style="font-size:12px;font-family:sans-serif;" transform="translate(929.76 184.4359)" fill="#6E7079">480</text>
<text dominant-baseline="central" text-anchor="start" style="font-size:12px;font-family:sans-serif;" transform="translate(929.76 141.1538)" fill="#6E7079">720</text>
<text dominant-baseline="central" text-anchor="start" style="font-size:12px;font-family:sans-serif;" transform="translate(929.76 97.8718)" fill="#6E7079">960</text>
<text dominant-baseline="central" text-anchor="start" style="font-size:12px;font-family:sans-serif;" transform="translate(929.76 60)" fill="#6E7079">1,170</text>
<text dominant-baseline="central" text-anchor="middle" style="font-size:12px;font-family:sans-serif;" y="6" transform="translate(70.7068 279)" fill="#6E7079">1km</text>
<text dominant-baseline="central" text-anchor="middle" style="font-size:12px;font-family:sans-serif;" y="6" transform="translate(120.0432 279)" fill="#6E7079">11km</text>
<text dominant-baseline="central" text-anchor="middle" style="font-size:12px;font-family:sans-serif;" y="6" transform="translate(169.3797 279)" fill="#6E7079">21km</text>
<text dominant-baseline="central" text-anchor="middle" style="font-size:12px;font-family:sans-serif;" y="6" transform="translate(218.7161 279)" fill="#6E7079">31km</text>
<text dominant-baseline="central" text-anchor="middle" style="font-size:12px;font-family:sans-serif;" y="6" transform="translate(268.0525 279)" fill="#6E7079">41km</text>
<text dominant-baseline="central" text-anchor="middle" style="font-size:12px;font-family:sans-serif;" y="6" transform="translate(317.3889 279)" fill="#6E7079">51km</text>
<text dominant-baseline="central" text-anchor="middle" style="font-size:12px;font-family:sans-serif;" y="6" transform="translate(366.7253 279)" fill="#6E7079">61km</text>
<text dominant-baseline="central" text-anchor="middle" style="font-size:12px;font-family:sans-serif;" y="6" transform="translate(416.0617 279)" fill="#6E7079">71km</text>
<text dominant-baseline="central" text-anchor="middle" style="font-size:12px;font-family:sans-serif;" y="6" transform="translate(465.3982 279)" fill="#6E7079">81km</text>
<text dominant-baseline="central" text-anchor="middle" style="font-size:12px;font-family:sans-serif;" y="6" transform="translate(514.7346 279)" fill="#6E7079">91km</text>
<text dominant-baseline="central" text-anchor="middle" style="font-size:12px;font-family:sans-serif;" y="6" transform="translate(564.071 279)" fill="#6E7079">101km</text>
<text dominant-baseline="central" text-anchor="middle" style="font-size:12px;font-family:sans-serif;" y="6" transform="translate(613.4074 279)" fill="#6E7079">111km</text>
<text dominant-baseline="central" text-anchor="middle" style="font-size:12px;font-family:sans-serif;" y="6" transform="translate(662.7438 279)" fill="#6E7079">121km</text>
<text dominant-baseline="central" text-anchor="middle" style="font-size:12px;font-family:sans-serif;" y="6" transform="translate(712.0802 279)" fill="#6E7079">131km</text>
<text dominant-baseline="central" text-anchor="middle" style="font-size:12px;font-family:sans-serif;" y="6" transform="translate(761.4166 279)" fill="#6E7079">141km</text>
<text dominant-baseline="central" text-anchor="middle" style="font-size:12px;font-family:sans-serif;" y="6" transform="translate(810.7531 279)" fill="#6E7079">151km</text>
<text dominant-baseline="central" text-anchor="middle" style="font-size:12px;font-family:sans-serif;" y="6" transform="translate(860.0895 279)" fill="#6E7079">161km</text>
<text dominant-baseline="central" text-anchor="middle" style="font-size:12px;font-family:sans-serif;" y="6" transform="translate(909.4259 279)" fill="#6E7079">171km</text>
<path d="M69 271l3.4 0l0 -210.6l-3.4 0Z" fill="rgb(227,73,2)" fill-opacity="0.3"></path>
<path d="M73.9 271l3.4 0l0 -210.3l-3.4 0Z" fill="rgb(227,73,2)" fill-opacity="0.3"></path>
<path d="M78.9 271l3.4 0l0 -210.1l-3.4 0Z" fill="rgb(227,73,2)" fill-opacity="0.3"></path>
<path d="M83.8 271l3.4 0l0 -209.9l-3.4 0Z" fill="rgb(227,73,2)" fill-opacity="0.3"></path>
<path d="M88.7 271l3.4 0l0 -209.2l-3.4 0Z" fill="rgb(227,73,2)" fill-opacity="0.3"></path>
<path d="M93.7 271l3.4 0l0 -209l-3.4 0Z" fill="rgb(227,73,2)" fill-opacity="0.3"></path>
<path d="M98.6 271l3.4 0l0 -208.7l-3.4 0Z" fill="rgb(227,73,2)" fill-opacity="0.3"></path>
<path d="M103.5 271l3.4 0l0 -207.6l-3.4 0Z" fill="rgb(227,73,2)" fill-opacity="0.3"></path>
<path d="M108.5 271l3.4 0l0 -207l-3.4 0Z" fill="rgb(227,73,2)" fill-opacity="0.3"></path>
<path d="M113.4 271l3.4 0l0 -206.7l-3.4 0Z" fill="rgb(227,73,2)" fill-opacity="0.3"></path>
<path d="M118.3 271l3.4 0l0 -206.3l-3.4 0Z" fill="rgb(227,73,2)" fill-opacity="0.3"></path>
<path d="M123.3 271l3.4 0l0 -206l-3.4 0Z" fill="rgb(227,73,2)" fill-opacity="0.3"></path>
<path d="M128.2 271l3.4 0l0 -205.2l-3.4 0Z" fill="rgb(227,73,2)" fill-opacity="0.3"></path>
<path d="M133.1 271l3.4 0l0 -204.1l-3.4 0Z" fill="rgb(227,73,2)" fill-opacity="0.3"></path>
<path d="M138.1 271l3.4 0l0 -202.9l-3.4 0Z" fill="rgb(227,73,2)" fill-opacity="0.3"></path>
<path d="M143 271l3.4 0l0 -201.3l-3.4 0Z" fill="rgb(227,73,2)" fill-opacity="0.3"></path>
<path d="M147.9 271l3.4 0l0 -199.8l-3.4 0Z" fill="rgb(227,73,2)" fill-opacity="0.3"></path>
<path d="M152.9 271l3.4 0l0 -198l-3.4 0Z" fill="rgb(227,73,2)" fill-opacity="0.3"></path>
<path d="M157.8 271l3.4 0l0 -194.8l-3.4 0Z" fill="rgb(227,73,2)" fill-opacity="0.3"></path>
<path d="M162.7 271l3.4 0l0 -192.8l-3.4 0Z" fill="rgb(227,73,2)" fill-opacity="0.3"></path>
<path d="M167.7 271l3.4 0l0 -189.7l-3.4 0Z" fill="rgb(227,73,2)" fill-opacity="0.3"></path>
<path d="M172.6 271l3.4 0l0 -185.2l-3.4 0Z" fill="rgb(227,73,2)" fill-opacity="0.3"></path>
<path d="M177.5 271l3.4 0l0 -181.6l-3.4 0Z" fill="rgb(227,73,2)" fill-opacity="0.3"></path>
<path d="M182.5 271l3.4 0l0 -177.1l-3.4 0Z" fill="rgb(227,73,2)" fill-opacity="0.3"></path>
<path d="M187.4 271l3.4 0l0 -171.3l-3.4 0Z" fill="rgb(227,73,2)" fill-opacity="0.3"></path>
<path d="M192.3 271l3.4 0l0 -165.6l-3.4 0Z" fill="rgb(227,73,2)" fill-opacity="0.3"></path>
<path d="M197.3 271l3.4 0l0 -160.7l-3.4 0Z" fill="rgb(227,73,2)" fill-opacity="0.3"></path>
<path d="M202.2 271l3.4 0l0 -155.5l-3.4 0Z" fill="rgb(227,73,2)" fill-opacity="0.3"></path>
<path d="M207.1 271l3.4 0l0 -149.7l-3.4 0Z" fill="rgb(227,73,2)" fill-opacity="0.3"></path>
<path d="M212.1 271l3.4 0l0 -145.7l-3.4 0Z" fill="rgb(227,73,2)" fill-opacity="0.3"></path>
<path d="M217 271l3.4 0l0 -139.8l-3.4 0Z" fill="rgb(227,73,2)" fill-opacity="0.3"></path>
<path d="M221.9 271l3.4 0l0 -134.4l-3.4 0Z" fill="rgb(227,73,2)" fill-opacity="0.3"></path>
<path d="M226.9 271l3.4 0l0 -130l-3.4 0Z" fill="rgb(227,73,2)" fill-opacity="0.3"></path>
<path d="M231.8 271l3.4 0l0 -126.4l-3.4 0Z" fill="rgb(227,73,2)" fill-opacity="0.3"></path>
<path d="M236.7 271l3.4 0l0 -123.9l-3.4 0Z" fill="rgb(227,73,2)" fill-opacity="0.3"></path>
<path d="M241.7 271l3.4 0l0 -118.8l-3.4 0Z" fill="rgb(227,73,2)" fill-opacity="0.3"></path>
<path d="M246.6 271l3.4 0l0 -114.5l-3.4 0Z" fill="rgb(227,73,2)" fill-opacity="0.3"></path>
<path d="M251.5 271l3.4 0l0 -110.9l-3.4 0Z" fill="rgb(227,73,2)" fill-opacity="0.3"></path>
<path d="M256.5 271l3.4 0l0 -108.9l-3.4 0Z" fill="rgb(227,73,2)" fill-opacity="0.3"></path>
<path d="M261.4 271l3.4 0l0 -105.1l-3.4 0Z" fill="rgb(227,73,2)" fill-opacity="0.3"></path>
<path d="M266.4 271l3.4 0l0 -102.1l-3.4 0Z" fill="rgb(227,73,2)" fill-opacity="0.3"></path>
<path d="M271.3 271l3.4 0l0 -98.5l-3.4 0Z" fill="rgb(227,73,2)" fill-opacity="0.3"></path>
<path d="M276.2 271l3.4 0l0 -94.1l-3.4 0Z" fill="rgb(227,73,2)" fill-opacity="0.3"></path>
<path d="M281.2 271l3.4 0l0 -90.4l-3.4 0Z" fill="rgb(227,73,2)" fill-opacity="0.3"></path>
<path d="M286.1 271l3.4 0l0 -86.6l-3.4 0Z" fill="rgb(227,73,2)" fill-opacity="0.3"></path>
<path d="M291 271l3.4 0l0 -82.8l-3.4 0Z" fill="rgb(227,73,2)" fill-opacity="0.3"></path>
<path d="M296 271l3.4 0l0 -79.7l-3.4 0Z" fill="rgb(227,73,2)" fill-opacity="0.3"></path>
<path d="M300.9 271l3.4 0l0 -76.5l-3.4 0Z" fill="rgb(227,73,2)" fill-opacity="0.3"></path>
<path d="M305.8 271l3.4 0l0 -73.8l-3.4 0Z" fill="rgb(227,73,2)" fill-opacity="0.3"></path>
<path d="M310.8 271l3.4 0l0 -71.2l-3.4 0Z" fill="rgb(227,73,2)" fill-opacity="0.3"></path>
<path d="M315.7 271l3.4 0l0 -68.3l-3.4 0Z" fill="rgb(227,73,2)" fill-opacity="0.3"></path>
<path d="M320.6 271l3.4 0l0 -66.9l-3.4 0Z" fill="rgb(227,73,2)" fill-opacity="0.3"></path>
<path d="M325.6 271l3.4 0l0 -65.1l-3.4 0Z" fill="rgb(227,73,2)" fill-opacity="0.3"></path>
<path d="M330.5 271l3.4 0l0 -62.2l-3.4 0Z" fill="rgb(227,73,2)" fill-opacity="0.3"></path>
<path d="M335.4 271l3.4 0l0 -59.7l-3.4 0Z" fill="rgb(227,73,2)" fill-opacity="0.3"></path>
<path d="M340.4 271l3.4 0l0 -57.5l-3.4 0Z" fill="rgb(227,73,2)" fill-opacity="0.3"></path>
<path d="M345.3 271l3.4 0l0 -54.8l-3.4 0Z" fill="rgb(227,73,2)" fill-opacity="0.3"></path>
<path d="M350.2 271l3.4 0l0 -53.4l-3.4 0Z" fill="rgb(227,73,2)" fill-opacity="0.3"></path>
<path d="M355.2 271l3.4 0l0 -52.1l-3.4 0Z" fill="rgb(227,73,2)" fill-opacity="0.3"></path>
<path d="M360.1 271l3.4 0l0 -51l-3.4 0Z" fill="rgb(227,73,2)" fill-opacity="0.3"></path>
<path d="M365 271l3.4 0l0 -48.2l-3.4 0Z" fill="rgb(227,73,2)" fill-opacity="0.3"></path>
<path d="M370 271l3.4 0l0 -46.3l-3.4 0Z" fill="rgb(227,73,2)" fill-opacity="0.3"></path>
<path d="M374.9 271l3.4 0l0 -44l-3.4 0Z" fill="rgb(227,73,2)" fill-opacity="0.3"></path>
<path d="M379.8 271l3.4 0l0 -42.7l-3.4 0Z" fill="rgb(227,73,2)" fill-opacity="0.3"></path>
<path d="M384.8 271l3.4 0l0 -41.5l-3.4 0Z" fill="rgb(227,73,2)" fill-opacity="0.3"></path>
<path d="M389.7 271l3.4 0l0 -39.7l-3.4 0Z" fill="rgb(227,73,2)" fill-opacity="0.3"></path>
<path d="M394.6 271l3.4 0l0 -38.2l-3.4 0Z" fill="rgb(227,73,2)" fill-opacity="0.3"></path>
<path d="M399.6 271l3.4 0l0 -36.1l-3.4 0Z" fill="rgb(227,73,2)" fill-opacity="0.3"></path>
<path d="M404.5 271l3.4 0l0 -34.8l-3.4 0Z" fill="rgb(227,73,2)" fill-opacity="0.3"></path>
<path d="M409.4 271l3.4 0l0 -33.2l-3.4 0Z" fill="rgb(227,73,2)" fill-opacity="0.3"></path>
<path d="M414.4 271l3.4 0l0 -31.6l-3.4 0Z" fill="rgb(227,73,2)" fill-opacity="0.3"></path>
<path d="M419.3 271l3.4 0l0 -29.9l-3.4 0Z" fill="rgb(227,73,2)" fill-opacity="0.3"></path>
<path d="M424.2 271l3.4 0l0 -29.4l-3.4 0Z" fill="rgb(227,73,2)" fill-opacity="0.3"></path>
<path d="M429.2 271l3.4 0l0 -28.3l-3.4 0Z" fill="rgb(227,73,2)" fill-opacity="0.3"></path>
<path d="M434.1 271l3.4 0l0 -27.4l-3.4 0Z" fill="rgb(227,73,2)" fill-opacity="0.3"></path>
<path d="M439 271l3.4 0l0 -25.8l-3.4 0Z" fill="rgb(227,73,2)" fill-opacity="0.3"></path>
<path d="M444 271l3.4 0l0 -24.5l-3.4 0Z" fill="rgb(227,73,2)" fill-opacity="0.3"></path>
<path d="M448.9 271l3.4 0l0 -24.3l-3.4 0Z" fill="rgb(227,73,2)" fill-opacity="0.3"></path>
<path d="M453.8 271l3.4 0l0 -23.8l-3.4 0Z" fill="rgb(227,73,2)" fill-opacity="0.3"></path>
<path d="M458.8 271l3.4 0l0 -22.7l-3.4 0Z" fill="rgb(227,73,2)" fill-opacity="0.3"></path>
<path d="M463.7 271l3.4 0l0 -21.6l-3.4 0Z" fill="rgb(227,73,2)" fill-opacity="0.3"></path>
<path d="M468.6 271l3.4 0l0 -20.4l-3.4 0Z" fill="rgb(227,73,2)" fill-opacity="0.3"></path>
<path d="M473.6 271l3.4 0l0 -20.2l-3.4 0Z" fill="rgb(227,73,2)" fill-opacity="0.3"></path>
<path d="M478.5 271l3.4 0l0 -19.8l-3.4 0Z" fill="rgb(227,73,2)" fill-opacity="0.3"></path>
<path d="M483.4 271l3.4 0l0 -19.3l-3.4 0Z" fill="rgb(227,73,2)" fill-opacity="0.3"></path>
<path d="M488.4 271l3.4 0l0 -18.8l-3.4 0Z" fill="rgb(227,73,2)" fill-opacity="0.3"></path>
<path d="M493.3 271l3.4 0l0 -18l-3.4 0Z" fill="rgb(227,73,2)" fill-opacity="0.3"></path>
<path d="M498.2 271l3.4 0l0 -17.5l-3.4 0Z" fill="rgb(227,73,2)" fill-opacity="0.3"></path>
<path d="M503.2 271l3.4 0l0 -16.6l-3.4 0Z" fill="rgb(227,73,2)" fill-opacity="0.3"></path>
<path d="M508.1 271l3.4 0l0 -16.2l-3.4 0Z" fill="rgb(227,73,2)" fill-opacity="0.8"></path>
<path d="M513 271l3.4 0l0 -15.5l-3.4 0Z" fill="rgb(227,73,2)" fill-opacity="0.3"></path>
<path d="M518 271l3.4 0l0 -15.1l-3.4 0Z" fill="rgb(227,73,2)" fill-opacity="0.3"></path>
<path d="M522.9 271l3.4 0l0 -14.6l-3.4 0Z" fill="rgb(227,73,2)" fill-opacity="0.3"></path>
<path d="M527.8 271l3.4 0l0 -13.5l-3.4 0Z" fill="rgb(227,73,2)" fill-opacity="0.3"></path>
<path d="M532.8 271l3.4 0l0 -13.2l-3.4 0Z" fill="rgb(227,73,2)" fill-opacity="0.3"></path>
<path d="M537.7 271l3.4 0l0 -13l-3.4 0Z" fill="rgb(227,73,2)" fill-opacity="0.3"></path>
<path d="M542.6 271l3.4 0l0 -12.6l-3.4 0Z" fill="rgb(227,73,2)" fill-opacity="0.3"></path>
<path d="M547.6 271l3.4 0l0 -12.4l-3.4 0Z" fill="rgb(227,73,2)" fill-opacity="0.3"></path>
<path d="M552.5 271l3.4 0l0 -11.9l-3.4 0Z" fill="rgb(227,73,2)" fill-opacity="0.3"></path>
<path d="M557.4 271l3.4 0l0 -11.4l-3.4 0Z" fill="rgb(227,73,2)" fill-opacity="0.3"></path>
<path d="M562.4 271l3.4 0l0 -10.8l-3.4 0Z" fill="rgb(227,73,2)" fill-opacity="0.3"></path>
<path d="M567.3 271l3.4 0l0 -10.1l-3.4 0Z" fill="rgb(227,73,2)" fill-opacity="0.3"></path>
<path d="M572.2 271l3.4 0l0 -9.7l-3.4 0Z" fill="rgb(227,73,2)" fill-opacity="0.3"></path>
<path d="M577.2 271l3.4 0l0 -9.6l-3.4 0Z" fill="rgb(227,73,2)" fill-opacity="0.3"></path>
<path d="M582.1 271l3.4 0l0 -9.2l-3.4 0Z" fill="rgb(227,73,2)" fill-opacity="0.3"></path>
<path d="M587 271l3.4 0l0 -8.7l-3.4 0Z" fill="rgb(227,73,2)" fill-opacity="0.3"></path>
<path d="M592 271l3.4 0l0 -8.3l-3.4 0Z" fill="rgb(227,73,2)" fill-opacity="0.3"></path>
<path d="M596.9 271l3.4 0l0 -8.1l-3.4 0Z" fill="rgb(227,73,2)" fill-opacity="0.3"></path>
<path d="M601.8 271l3.4 0l0 -8.1l-3.4 0Z" fill="rgb(227,73,2)" fill-opacity="0.3"></path>
<path d="M606.8 271l3.4 0l0 -7.9l-3.4 0Z" fill="rgb(227,73,2)" fill-opacity="0.3"></path>
<path d="M611.7 271l3.4 0l0 -7.4l-3.4 0Z" fill="rgb(227,73,2)" fill-opacity="0.3"></path>
<path d="M616.6 271l3.4 0l0 -7.4l-3.4 0Z" fill="rgb(227,73,2)" fill-opacity="0.3"></path>
<path d="M621.6 271l3.4 0l0 -7.4l-3.4 0Z" fill="rgb(227,73,2)" fill-opacity="0.3"></path>
<path d="M626.5 271l3.4 0l0 -7l-3.4 0Z" fill="rgb(227,73,2)" fill-opacity="0.3"></path>
<path d="M631.4 271l3.4 0l0 -6.9l-3.4 0Z" fill="rgb(227,73,2)" fill-opacity="0.3"></path>
<path d="M636.4 271l3.4 0l0 -6.9l-3.4 0Z" fill="rgb(227,73,2)" fill-opacity="0.3"></path>
<path d="M641.3 271l3.4 0l0 -6.7l-3.4 0Z" fill="rgb(227,73,2)" fill-opacity="0.3"></path>
<path d="M646.2 271l3.4 0l0 -6.1l-3.4 0Z" fill="rgb(227,73,2)" fill-opacity="0.3"></path>
<path d="M651.2 271l3.4 0l0 -5.4l-3.4 0Z" fill="rgb(227,73,2)" fill-opacity="0.3"></path>
<path d="M656.1 271l3.4 0l0 -5.2l-3.4 0Z" fill="rgb(227,73,2)" fill-opacity="0.3"></path>
<path d="M661 271l3.4 0l0 -5.2l-3.4 0Z" fill="rgb(227,73,2)" fill-opacity="0.3"></path>
<path d="M666 271l3.4 0l0 -5.2l-3.4 0Z" fill="rgb(227,73,2)" fill-opacity="0.3"></path>
<path d="M670.9 271l3.4 0l0 -5.2l-3.4 0Z" fill="rgb(227,73,2)" fill-opacity="0.3"></path>
<path d="M675.8 271l3.4 0l0 -5.2l-3.4 0Z" fill="rgb(227,73,2)" fill-opacity="0.3"></path>
<path d="M680.8 271l3.4 0l0 -5.2l-3.4 0Z" fill="rgb(227,73,2)" fill-opacity="0.3"></path>
<path d="M685.7 271l3.4 0l0 -5.2l-3.4 0Z" fill="rgb(227,73,2)" fill-opacity="0.3"></path>
<path d="M690.6 271l3.4 0l0 -5l-3.4 0Z" fill="rgb(227,73,2)" fill-opacity="0.3"></path>
<path d="M695.6 271l3.4 0l0 -4.9l-3.4 0Z" fill="rgb(227,73,2)" fill-opacity="0.3"></path>
<path d="M700.5 271l3.4 0l0 -4.7l-3.4 0Z" fill="rgb(227,73,2)" fill-opacity="0.3"></path>
<path d="M705.4 271l3.4 0l0 -4.7l-3.4 0Z" fill="rgb(227,73,2)" fill-opacity="0.3"></path>
<path d="M710.4 271l3.4 0l0 -4.3l-3.4 0Z" fill="rgb(227,73,2)" fill-opacity="0.3"></path>
<path d="M715.3 271l3.4 0l0 -4l-3.4 0Z" fill="rgb(227,73,2)" fill-opacity="0.3"></path>
<path d="M720.2 271l3.4 0l0 -3.4l-3.4 0Z" fill="rgb(227,73,2)" fill-opacity="0.3"></path>
<path d="M725.2 271l3.4 0l0 -3.1l-3.4 0Z" fill="rgb(227,73,2)" fill-opacity="0.3"></path>
<path d="M730.1 271l3.4 0l0 -2.9l-3.4 0Z" fill="rgb(227,73,2)" fill-opacity="0.3"></path>
<path d="M735 271l3.4 0l0 -2.7l-3.4 0Z" fill="rgb(227,73,2)" fill-opacity="0.3"></path>
<path d="M740 271l3.4 0l0 -2.5l-3.4 0Z" fill="rgb(227,73,2)" fill-opacity="0.3"></path>
<path d="M744.9 271l3.4 0l0 -2.3l-3.4 0Z" fill="rgb(227,73,2)" fill-opacity="0.3"></path>
<path d="M749.8 271l3.4 0l0 -2.2l-3.4 0Z" fill="rgb(227,73,2)" fill-opacity="0.3"></path>
<path d="M754.8 271l3.4 0l0 -2l-3.4 0Z" fill="rgb(227,73,2)" fill-opacity="0.3"></path>
<path d="M759.7 271l3.4 0l0 -2l-3.4 0Z" fill="rgb(227,73,2)" fill-opacity="0.3"></path>
<path d="M764.6 271l3.4 0l0 -1.6l-3.4 0Z" fill="rgb(227,73,2)" fill-opacity="0.3"></path>
<path d="M769.6 271l3.4 0l0 -1.6l-3.4 0Z" fill="rgb(227,73,2)" fill-opacity="0.3"></path>
<path d="M774.5 271l3.4 0l0 -1.6l-3.4 0Z" fill="rgb(227,73,2)" fill-opacity="0.3"></path>
<path d="M779.4 271l3.4 0l0 -1.4l-3.4 0Z" fill="rgb(227,73,2)" fill-opacity="0.3"></path>
<path d="M784.4 271l3.4 0l0 -1.3l-3.4 0Z" fill="rgb(227,73,2)" fill-opacity="0.3"></path>
<path d="M789.3 271l3.4 0l0 -1.1l-3.4 0Z" fill="rgb(227,73,2)" fill-opacity="0.3"></path>
<path d="M794.3 271l3.4 0l0 -1.1l-3.4 0Z" fill="rgb(227,73,2)" fill-opacity="0.3"></path>
<path d="M799.2 271l3.4 0l0 -1.1l-3.4 0Z" fill="rgb(227,73,2)" fill-opacity="0.3"></path>
<path d="M804.1 271l3.4 0l0 -0.9l-3.4 0Z" fill="rgb(227,73,2)" fill-opacity="0.3"></path>
<path d="M809.1 271l3.4 0l0 -0.9l-3.4 0Z" fill="rgb(227,73,2)" fill-opacity="0.3"></path>
<path d="M814 271l3.4 0l0 -0.9l-3.4 0Z" fill="rgb(227,73,2)" fill-opacity="0.3"></path>
<path d="M818.9 271l3.4 0l0 -0.9l-3.4 0Z" fill="rgb(227,73,2)" fill-opacity="0.3"></path>
<path d="M823.9 271l3.4 0l0 -0.9l-3.4 0Z" fill="rgb(227,73,2)" fill-opacity="0.3"></path>
<path d="M828.8 271l3.4 0l0 -0.9l-3.4 0Z" fill="rgb(227,73,2)" fill-opacity="0.3"></path>
<path d="M833.7 271l3.4 0l0 -0.7l-3.4 0Z" fill="rgb(227,73,2)" fill-opacity="0.3"></path>
<path d="M838.7 271l3.4 0l0 -0.7l-3.4 0Z" fill="rgb(227,73,2)" fill-opacity="0.3"></path>
<path d="M843.6 271l3.4 0l0 -0.7l-3.4 0Z" fill="rgb(227,73,2)" fill-opacity="0.3"></path>
<path d="M848.5 271l3.4 0l0 -0.7l-3.4 0Z" fill="rgb(227,73,2)" fill-opacity="0.3"></path>
<path d="M853.5 271l3.4 0l0 -0.7l-3.4 0Z" fill="rgb(227,73,2)" fill-opacity="0.3"></path>
<path d="M858.4 271l3.4 0l0 -0.7l-3.4 0Z" fill="rgb(227,73,2)" fill-opacity="0.3"></path>
<path d="M863.3 271l3.4 0l0 -0.7l-3.4 0Z" fill="rgb(227,73,2)" fill-opacity="0.3"></path>
<path d="M868.3 271l3.4 0l0 -0.7l-3.4 0Z" fill="rgb(227,73,2)" fill-opacity="0.3"></path>
<path d="M873.2 271l3.4 0l0 -0.7l-3.4 0Z" fill="rgb(227,73,2)" fill-opacity="0.3"></path>
<path d="M878.1 271l3.4 0l0 -0.5l-3.4 0Z" fill="rgb(227,73,2)" fill-opacity="0.3"></path>
<path d="M883.1 271l3.4 0l0 -0.5l-3.4 0Z" fill="rgb(227,73,2)" fill-opacity="0.3"></path>
<path d="M888 271l3.4 0l0 -0.5l-3.4 0Z" fill="rgb(227,73,2)" fill-opacity="0.3"></path>
<path d="M892.9 271l3.4 0l0 -0.4l-3.4 0Z" fill="rgb(227,73,2)" fill-opacity="0.3"></path>
<path d="M897.9 271l3.4 0l0 -0.2l-3.4 0Z" fill="rgb(227,73,2)" fill-opacity="0.3"></path>
<path d="M902.8 271l3.4 0l0 -0.2l-3.4 0Z" fill="rgb(227,73,2)" fill-opacity="0.3"></path>
<path d="M907.7 271l3.4 0l0 -0.2l-3.4 0Z" fill="rgb(227,73,2)" fill-opacity="0.3"></path>
<path d="M912.7 271l3.4 0l0 -0.2l-3.4 0Z" fill="rgb(227,73,2)" fill-opacity="0.3"></path>
<path d="M917.6 271l3.4 0l0 0l-3.4 0Z" fill="rgb(227,73,2)" fill-opacity="0.3"></path>
<path d="M-5 -5l226.9 0l0 24l-226.9 0Z" transform="translate(391.54 5)" fill="rgb(0,0,0)" fill-opacity="0" stroke="#ccc" stroke-width="0"></path>
<path d="M3.5 0L21.5 0A3.5 3.5 0 0 1 25 3.5L25 10.5A3.5 3.5 0 0 1 21.5 14L3.5 14A3.5 3.5 0 0 1 0 10.5L0 3.5A3.5 3.5 0 0 1 3.5 0" transform="translate(391.54 5)" fill="rgb(227,73,2)" fill-opacity="0.3"></path>
<text dominant-baseline="central" text-anchor="start" style="font-size:12px;font-family:sans-serif;" xml:space="preserve" x="30" y="7" transform="translate(391.54 5)" fill="#333">Times completed</text>
<path d="M0 7L25 7" transform="translate(524.1 5)" fill="#000" stroke="#E34902" stroke-width="2" stroke-linecap="butt" stroke-miterlimit="10"></path>
<path d="M18.1 7A5.6 5.6 0 1 1 18.1 6.4A5.6 5.6 0 0 1 18.1 7" transform="translate(524.1 5)" fill="#fff" stroke="#E34902" stroke-width="2" stroke-linecap="butt" stroke-miterlimit="10"></path>
<text dominant-baseline="central" text-anchor="start" style="font-size:12px;font-family:sans-serif;" x="30" y="7" transform="translate(524.1 5)" fill="#333">Eddington</text>
<path d="M-0.54 -0.89A0.6 0.6 0 1 1 0.54 -0.89C0.39 -0.56 0 -0.42 0 0C0 -0.42 -0.39 -0.56 -0.54 -0.89Z" transform="matrix(25,0,0,25,509.8009,249.9496)" fill="rgb(227,73,2)" fill-opacity="0.8"></path>
<text dominant-baseline="central" text-anchor="middle" style="font-size:12px;font-family:sans-serif;" transform="translate(509.8009 223.8067)" fill="#eee" stroke="rgb(227,73,2)" stroke-width="2" paint-order="stroke" stroke-opacity="0.8" stroke-miterlimit="2">90</text>
<g clip-path="url(#zr0-c0)">
<path d="M70.7 270.8L75.6 270.6L80.6 270.5L85.5 270.3L90.4 270.1L95.4 269.9L100.3 269.7L105.2 269.6L110.2 269.4L115.1 269.2L120 269L125 268.8L129.9 268.7L134.8 268.5L139.8 268.3L144.7 268.1L149.6 267.9L154.6 267.8L159.5 267.6L164.4 267.4L169.4 267.2L174.3 267L179.2 266.9L184.2 266.7L189.1 266.5L194 266.3L199 266.1L203.9 266L208.8 265.8L213.8 265.6L218.7 265.4L223.6 265.2L228.6 265L233.5 264.9L238.5 264.7L243.4 264.5L248.3 264.3L253.3 264.1L258.2 264L263.1 263.8L268.1 263.6L273 263.4L277.9 263.2L282.9 263.1L287.8 262.9L292.7 262.7L297.7 262.5L302.6 262.3L307.5 262.2L312.5 262L317.4 261.8L322.3 261.6L327.3 261.4L332.2 261.3L337.1 261.1L342.1 260.9L347 260.7L351.9 260.5L356.9 260.4L361.8 260.2L366.7 260L371.7 259.8L376.6 259.6L381.5 259.5L386.5 259.3L391.4 259.1L396.3 258.9L401.3 258.7L406.2 258.6L411.1 258.4L416.1 258.2L421 258L425.9 257.8L430.9 257.7L435.8 257.5L440.7 257.3L445.7 257.1L450.6 256.9L455.5 256.8L460.5 256.6L465.4 256.4L470.3 256.2L475.3 256L480.2 255.9L485.1 255.7L490.1 255.5L495 255.3L499.9 255.1L504.9 254.9L509.8 254.8L514.7 254.6L519.7 254.4L524.6 254.2L529.5 254L534.5 253.9L539.4 253.7L544.3 253.5L549.3 253.3L554.2 253.1L559.1 253L564.1 252.8L569 252.6L573.9 252.4L578.9 252.2L583.8 252.1L588.7 251.9L593.7 251.7L598.6 251.5L603.5 251.3L608.5 251.2L613.4 251L618.3 250.8L623.3 250.6L628.2 250.4L633.1 250.3L638.1 250.1L643 249.9L647.9 249.7L652.9 249.5L657.8 249.4L662.7 249.2L667.7 249L672.6 248.8L677.5 248.6L682.5 248.5L687.4 248.3L692.3 248.1L697.3 247.9L702.2 247.7L707.1 247.6L712.1 247.4L717 247.2L721.9 247L726.9 246.8L731.8 246.7L736.7 246.5L741.7 246.3L746.6 246.1L751.5 245.9L756.5 245.8L761.4 245.6L766.4 245.4L771.3 245.2L776.2 245L781.2 244.9L786.1 244.7L791 244.5L796 244.3L800.9 244.1L805.8 243.9L810.8 243.8L815.7 243.6L820.6 243.4L825.6 243.2L830.5 243L835.4 242.9L840.4 242.7L845.3 242.5L850.2 242.3L855.2 242.1L860.1 242L865 241.8L870 241.6L874.9 241.4L879.8 241.2L884.8 241.1L889.7 240.9L894.6 240.7L899.6 240.5L904.5 240.3L909.4 240.2L914.4 240L919.3 239.8" fill="none" stroke="#E34902" stroke-width="2" stroke-linejoin="bevel"></path>
</g>
<defs >
<clipPath id="zr0-c0">
<path d="M67 59l856 0l0 213l-856 0Z" fill="#000"></path>
</clipPath>
</defs>
</svg>