<svg width="1000" height="300" xmlns="http://www.w3.org/2000/svg" xmlns:xlink="http://www.w3.org/1999/xlink" version="1.1" baseProfile="full" viewBox="0 0 1000 300">
<rect width="1000" height="300" x="0" y="0" id="0" fill="#ffffff"></rect>
<path d="M68.2 271.5L921.8 271.5" fill="none" stroke="#E0E6F1"></path>
<path d="M68.2 226.5L921.8 226.5" fill="none" stroke="#E0E6F1"></path>
<path d="M68.2 182.5L921.8 182.5" fill="none" stroke="#E0E6F1"></path>
<path d="M68.2 137.5L921.8 137.5" fill="none" stroke="#E0E6F1"></path>
<path d="M68.2 93.5L921.8 93.5" fill="none" stroke="#E0E6F1"></path>
<path d="M68.2 60.5L921.8 60.5" fill="none" stroke="#E0E6F1"></path>
<path d="M68.2 271.5L921.8 271.5" fill="none" stroke="#6E7079" stroke-linecap="round"></path>
<path d="M70.5 271L70.5 276" fill="none" stroke="#6E7079"></path>
<path d="M119.5 271L119.5 276" fill="none" stroke="#6E7079"></path>
<path d="M169.5 271L169.5 276" fill="none" stroke="#6E7079"></path>
<path d="M218.5 271L218.5 276" fill="none" stroke="#6E7079"></path>
<path d="M267.5 271L267.5 276" fill="none" stroke="#6E7079"></path>
<path d="M316.5 271L316.5 276" fill="none" stroke="#6E7079"></path>
<path d="M365.5 271L365.5 276" fill="none" stroke="#6E7079"></path>
<path d="M414.5 271L414.5 276" fill="none" stroke="#6E7079"></path>
<path d="M463.5 271L463.5 276" fill="none" stroke="#6E7079"></path>
<path d="M512.5 271L512.5 276" fill="none" stroke="#6E7079"></path>
<path d="M561.5 271L561.5 276" fill="none" stroke="#6E7079"></path>
<path d="M610.5 271L610.5 276" fill="none" stroke="#6E7079"></path>
<path d="M659.5 271L659.5 276" fill="none" stroke="#6E7079"></path>
<path d="M708.5 271L708.5 276" fill="none" stroke="#6E7079"></path>
<path d="M757.5 271L757.5 276" fill="none" stroke="#6E7079"></path>
<path d="M806.5 271L806.5 276" fill="none" stroke="#6E7079"></path>
<path d="M855.5 271L855.5 276" fill="none" stroke="#6E7079"></path>
<path d="M904.5 271L904.5 276" fill="none" stroke="#6E7079"></path>
<text dominant-baseline="central" text-anchor="end" style="font-size:12px;font-family:sans-serif;" transform="translate(60.24 271)" fill="#6E7079">0</text>
<text dominant-baseline="central" text-anchor="end" style="font-size:12px;font-family:sans-serif;" transform="translate(60.24 226.5789)" fill="#6E7079">240</text>
<text dominant-baseline="central" text-anchor="end" style="font-size:12px;font-family:sans-serif;" transform="translate(60.24 182.1579)" fill="#6E7079">480</text>
<text dominant-baseline="central" text-anchor="end" style="font-size:12px;font-family:sans-serif;" transform="translate(60.24 137.7368)" fill="#6E7079">720</text>
<text dominant-baseline="central" text-anchor="end" style="font-size:12px;font-family:sans-serif;" transform="translate(60.24 93.3158)" fill="#6E7079">960</text>
<text dominant-baseline="central" text-anchor="end" style="font-size:12px;font-family:sans-serif;" transform="translate(60.24 60)" fill="#6E7079">1,140</text>
<text dominant-baseline="central" text-anchor="start" style="font-size:12px;font-family:sans-serif;" transform="translate(929.76 271)" fill="#6E7079">0</text>
<text dominant-baseline="central" text-anchor="start" style="font-size:12px;font-family:sans-serif;" transform="translate(929.76 226.5789)" fill="#6E7079">240</text>
<text dominant-baseline="central" text-anchor="start" style="font-size:12px;font-family:sans-serif;" transform="translate(929.76 182.1579)" fill="#6E7079">480</text>
<text dominant-baseline="central" text-anchor="start" style="font-size:12px;font-family:sans-serif;" transform="translate(929.76 137.7368)" fill="#6E7079">720</text>
<text dominant-baseline="central" text-anchor="start" style="font-size:12px;font-family:sans-serif;" transform="translate(929.76 93.3158)" fill="#6E7079">960</text>
<text dominant-baseline="central" text-anchor="start" style="font-size:12px;font-family:sans-serif;" transform="translate(929.76 60)" fill="#6E7079">1,140</text>
<text dominant-baseline="central" text-anchor="middle" style="font-size:12px;font-family:sans-serif;" y="6" transform="translate(70.6926 279)" fill="#6E7079">1km</text>
<text dominant-baseline="central" text-anchor="middle" style="font-size:12px;font-family:sans-serif;" y="6" transform="translate(119.7455 279)" fill="#6E7079">11km</text>
<text dominant-baseline="central" text-anchor="middle" style="font-size:12px;font-family:sans-serif;" y="6" transform="translate(168.7984 279)" fill="#6E7079">21km</text>
<text dominant-baseline="central" text-anchor="middle" style="font-size:12px;font-family:sans-serif;" y="6" transform="translate(217.8513 279)" fill="#6E7079">31km</text>
<text dominant-baseline="central" text-anchor="middle" style="font-size:12px;font-family:sans-serif;" y="6" transform="translate(266.9041 279)" fill="#6E7079">41km</text>
<text dominant-baseline="central" text-anchor="middle" style="font-size:12px;font-family:sans-serif;" y="6" transform="translate(315.957 279)" fill="#6E7079">51km</text>
<text dominant-baseline="central" text-anchor="middle" style="font-size:12px;font-family:sans-serif;" y="6" transform="translate(365.0099 279)" fill="#6E7079">61km</text>
<text dominant-baseline="central" text-anchor="middle" style="font-size:12px;font-family:sans-serif;" y="6" transform="translate(414.0628 279)" fill="#6E7079">71km</text>
<text dominant-baseline="central" text-anchor="middle" style="font-size:12px;font-family:sans-serif;" y="6" transform="translate(463.1156 279)" fill="#6E7079">81km</text>
<text dominant-baseline="central" text-anchor="middle" style="font-size:12px;font-family:sans-serif;" y="6" transform="translate(512.1685 279)" fill="#6E7079">91km</text>
<text dominant-baseline="central" text-anchor="middle" style="font-size:12px;font-family:sans-serif;" y="6" transform="translate(561.2214 279)" fill="#6E7079">101km</text>
<text dominant-baseline="central" text-anchor="middle" style="font-size:12px;font-family:sans-serif;" y="6" transform="translate(610.2743 279)" fill="#6E7079">111km</text>
<text dominant-baseline="central" text-anchor="middle" style="font-size:12px;font-family:sans-serif;" y="6" transform="translate(659.3271 279)" fill="#6E7079">121km</text>
<text dominant-baseline="central" text-anchor="middle" style="font-size:12px;font-family:sans-serif;" y="6" transform="translate(708.38 279)" fill="#6E7079">131km</text>
<text dominant-baseline="central" text-anchor="middle" style="font-size:12px;font-family:sans-serif;" y="6" transform="translate(757.4329 279)" fill="#6E7079">141km</text>
<text dominant-baseline="central" text-anchor="middle" style="font-size:12px;font-family:sans-serif;" y="6" transform="translate(806.4857 279)" fill="#6E7079">151km</text>
<text dominant-baseline="central" text-anchor="middle" style="font-size:12px;font-family:sans-serif;" y="6" transform="translate(855.5386 279)" fill="#6E7079">161km</text>
<text dominant-baseline="central" text-anchor="middle" style="font-size:12px;font-family:sans-serif;" y="6" transform="translate(904.5915 279)" fill="#6E7079">171km</text>
<path d="M69 271l3.4 0l0 -210.1l-3.4 0Z" fill="rgb(227,73,2)" fill-opacity="0.3"></path>
<path d="M73.9 271l3.4 0l0 -209.7l-3.4 0Z" fill="rgb(227,73,2)" fill-opacity="0.3"></path>
<path d="M78.8 271l3.4 0l0 -209.5l-3.4 0Z" fill="rgb(227,73,2)" fill-opacity="0.3"></path>
<path d="M83.7 271l3.4 0l0 -209.3l-3.4 0Z" fill="rgb(227,73,2)" fill-opacity="0.3"></path>
<path d="M88.6 271l3.4 0l0 -208.6l-3.4 0Z" fill="rgb(227,73,2)" fill-opacity="0.3"></path>
<path d="M93.5 271l3.4 0l0 -208.4l-3.4 0Z" fill="rgb(227,73,2)" fill-opacity="0.3"></path>
<path d="M98.4 271l3.4 0l0 -208l-3.4 0Z" fill="rgb(227,73,2)" fill-opacity="0.3"></path>
<path d="M103.3 271l3.4 0l0 -206.9l-3.4 0Z" fill="rgb(227,73,2)" fill-opacity="0.3"></path>
<path d="M108.2 271l3.4 0l0 -206.4l-3.4 0Z" fill="rgb(227,73,2)" fill-opacity="0.3"></path>
<path d="M113.1 271l3.4 0l0 -206l-3.4 0Z" fill="rgb(227,73,2)" fill-opacity="0.3"></path>
<path d="M118.1 271l3.4 0l0 -205.6l-3.4 0Z" fill="rgb(227,73,2)" fill-opacity="0.3"></path>
<path d="M123 271l3.4 0l0 -205.3l-3.4 0Z" fill="rgb(227,73,2)" fill-opacity="0.3"></path>
<path d="M127.9 271l3.4 0l0 -204.5l-3.4 0Z" fill="rgb(227,73,2)" fill-opacity="0.3"></path>
<path d="M132.8 271l3.4 0l0 -203.8l-3.4 0Z" fill="rgb(227,73,2)" fill-opacity="0.3"></path>
<path d="M137.7 271l3.4 0l0 -202.9l-3.4 0Z" fill="rgb(227,73,2)" fill-opacity="0.3"></path>
<path d="M142.6 271l3.4 0l0 -201.4l-3.4 0Z" fill="rgb(227,73,2)" fill-opacity="0.3"></path>
<path d="M147.5 271l3.4 0l0 -199.9l-3.4 0Z" fill="rgb(227,73,2)" fill-opacity="0.3"></path>
<path d="M152.4 271l3.4 0l0 -198.6l-3.4 0Z" fill="rgb(227,73,2)" fill-opacity="0.3"></path>
<path d="M157.3 271l3.4 0l0 -195.1l-3.4 0Z" fill="rgb(227,73,2)" fill-opacity="0.3"></path>
<path d="M162.2 271l3.4 0l0 -193.2l-3.4 0Z" fill="rgb(227,73,2)" fill-opacity="0.3"></path>
<path d="M167.1 271l3.4 0l0 -189.9l-3.4 0Z" fill="rgb(227,73,2)" fill-opacity="0.3"></path>
<path d="M172 271l3.4 0l0 -185.3l-3.4 0Z" fill="rgb(227,73,2)" fill-opacity="0.3"></path>
<path d="M176.9 271l3.4 0l0 -181.8l-3.4 0Z" fill="rgb(227,73,2)" fill-opacity="0.3"></path>
<path d="M181.8 271l3.4 0l0 -177.3l-3.4 0Z" fill="rgb(227,73,2)" fill-opacity="0.3"></path>
<path d="M186.7 271l3.4 0l0 -172.3l-3.4 0Z" fill="rgb(227,73,2)" fill-opacity="0.3"></path>
<path d="M191.6 271l3.4 0l0 -166.8l-3.4 0Z" fill="rgb(227,73,2)" fill-opacity="0.3"></path>
<path d="M196.5 271l3.4 0l0 -162l-3.4 0Z" fill="rgb(227,73,2)" fill-opacity="0.3"></path>
<path d="M201.4 271l3.4 0l0 -156.8l-3.4 0Z" fill="rgb(227,73,2)" fill-opacity="0.3"></path>
<path d="M206.3 271l3.4 0l0 -151.6l-3.4 0Z" fill="rgb(227,73,2)" fill-opacity="0.3"></path>
<path d="M211.3 271l3.4 0l0 -147.9l-3.4 0Z" fill="rgb(227,73,2)" fill-opacity="0.3"></path>
<path d="M216.2 271l3.4 0l0 -140.9l-3.4 0Z" fill="rgb(227,73,2)" fill-opacity="0.3"></path>
<path d="M221.1 271l3.4 0l0 -135.9l-3.4 0Z" fill="rgb(227,73,2)" fill-opacity="0.3"></path>
<path d="M226 271l3.4 0l0 -131.6l-3.4 0Z" fill="rgb(227,73,2)" fill-opacity="0.3"></path>
<path d="M230.9 271l3.4 0l0 -127.9l-3.4 0Z" fill="rgb(227,73,2)" fill-opacity="0.3"></path>
<path d="M235.8 271l3.4 0l0 -125.5l-3.4 0Z" fill="rgb(227,73,2)" fill-opacity="0.3"></path>
<path d="M240.7 271l3.4 0l0 -120.9l-3.4 0Z" fill="rgb(227,73,2)" fill-opacity="0.3"></path>
<path d="M245.6 271l3.4 0l0 -116.6l-3.4 0Z" fill="rgb(227,73,2)" fill-opacity="0.3"></path>
<path d="M250.5 271l3.4 0l0 -113.1l-3.4 0Z" fill="rgb(227,73,2)" fill-opacity="0.3"></path>
<path d="M255.4 271l3.4 0l0 -110.9l-3.4 0Z" fill="rgb(227,73,2)" fill-opacity="0.3"></path>
<path d="M260.3 271l3.4 0l0 -107.2l-3.4 0Z" fill="rgb(227,73,2)" fill-opacity="0.3"></path>
<path d="M265.2 271l3.4 0l0 -104.4l-3.4 0Z" fill="rgb(227,73,2)" fill-opacity="0.3"></path>
<path d="M270.1 271l3.4 0l0 -100.7l-3.4 0Z" fill="rgb(227,73,2)" fill-opacity="0.3"></path>
<path d="M275 271l3.4 0l0 -96.2l-3.4 0Z" fill="rgb(227,73,2)" fill-opacity="0.3"></path>
<path d="M279.9 271l3.4 0l0 -92.5l-3.4 0Z" fill="rgb(227,73,2)" fill-opacity="0.3"></path>
<path d="M284.8 271l3.4 0l0 -88.8l-3.4 0Z" fill="rgb(227,73,2)" fill-opacity="0.3"></path>
<path d="M289.7 271l3.4 0l0 -85l-3.4 0Z" fill="rgb(227,73,2)" fill-opacity="0.3"></path>
<path d="M294.6 271l3.4 0l0 -81.8l-3.4 0Z" fill="rgb(227,73,2)" fill-opacity="0.3"></path>
<path d="M299.5 271l3.4 0l0 -78.7l-3.4 0Z" fill="rgb(227,73,2)" fill-opacity="0.3"></path>
<path d="M304.5 271l3.4 0l0 -75.9l-3.4 0Z" fill="rgb(227,73,2)" fill-opacity="0.3"></path>
<path d="M309.4 271l3.4 0l0 -73.3l-3.4 0Z" fill="rgb(227,73,2)" fill-opacity="0.3"></path>
<path d="M314.3 271l3.4 0l0 -70.1l-3.4 0Z" fill="rgb(227,73,2)" fill-opacity="0.3"></path>
<path d="M319.2 271l3.4 0l0 -68.5l-3.4 0Z" fill="rgb(227,73,2)" fill-opacity="0.3"></path>
<path d="M324.1 271l3.4 0l0 -66.8l-3.4 0Z" fill="rgb(227,73,2)" fill-opacity="0.3"></path>
<path d="M329 271l3.4 0l0 -63.9l-3.4 0Z" fill="rgb(227,73,2)" fill-opacity="0.3"></path>
<path d="M333.9 271l3.4 0l0 -61.3l-3.4 0Z" fill="rgb(227,73,2)" fill-opacity="0.3"></path>
<path d="M338.8 271l3.4 0l0 -59l-3.4 0Z" fill="rgb(227,73,2)" fill-opacity="0.3"></path>
<path d="M343.7 271l3.4 0l0 -56.3l-3.4 0Z" fill="rgb(227,73,2)" fill-opacity="0.3"></path>
<path d="M348.6 271l3.4 0l0 -54.8l-3.4 0Z" fill="rgb(227,73,2)" fill-opacity="0.3"></path>
<path d="M353.5 271l3.4 0l0 -53.5l-3.4 0Z" fill="rgb(227,73,2)" fill-opacity="0.3"></path>
<path d="M358.4 271l3.4 0l0 -52.4l-3.4 0Z" fill="rgb(227,73,2)" fill-opacity="0.3"></path>
<path d="M363.3 271l3.4 0l0 -49.4l-3.4 0Z" fill="rgb(227,73,2)" fill-opacity="0.3"></path>
<path d="M368.2 271l3.4 0l0 -47.6l-3.4 0Z" fill="rgb(227,73,2)" fill-opacity="0.3"></path>
<path d="M373.1 271l3.4 0l0 -45.2l-3.4 0Z" fill="rgb(227,73,2)" fill-opacity="0.3"></path>
<path d="M378 271l3.4 0l0 -43.9l-3.4 0Z" fill="rgb(227,73,2)" fill-opacity="0.3"></path>
<path d="M382.9 271l3.4 0l0 -42.8l-3.4 0Z" fill="rgb(227,73,2)" fill-opacity="0.3"></path>
<path d="M387.8 271l3.4 0l0 -40.9l-3.4 0Z" fill="rgb(227,73,2)" fill-opacity="0.3"></path>
<path d="M392.7 271l3.4 0l0 -39.6l-3.4 0Z" fill="rgb(227,73,2)" fill-opacity="0.3"></path>
<path d="M397.7 271l3.4 0l0 -37.2l-3.4 0Z" fill="rgb(227,73,2)" fill-opacity="0.3"></path>
<path d="M402.6 271l3.4 0l0 -35.9l-3.4 0Z" fill="rgb(227,73,2)" fill-opacity="0.3"></path>
<path d="M407.5 271l3.4 0l0 -34.2l-3.4 0Z" fill="rgb(227,73,2)" fill-opacity="0.3"></path>
<path d="M412.4 271l3.4 0l0 -32.6l-3.4 0Z" fill="rgb(227,73,2)" fill-opacity="0.3"></path>
<path d="M417.3 271l3.4 0l0 -30.9l-3.4 0Z" fill="rgb(227,73,2)" fill-opacity="0.3"></path>
<path d="M422.2 271l3.4 0l0 -30.4l-3.4 0Z" fill="rgb(227,73,2)" fill-opacity="0.3"></path>
<path d="M427.1 271l3.4 0l0 -29.2l-3.4 0Z" fill="rgb(227,73,2)" fill-opacity="0.3"></path>
<path d="M432 271l3.4 0l0 -28.3l-3.4 0Z" fill="rgb(227,73,2)" fill-opacity="0.3"></path>
<path d="M436.9 271l3.4 0l0 -26.7l-3.4 0Z" fill="rgb(227,73,2)" fill-opacity="0.3"></path>
<path d="M441.8 271l3.4 0l0 -25.4l-3.4 0Z" fill="rgb(227,73,2)" fill-opacity="0.3"></path>
<path d="M446.7 271l3.4 0l0 -25.2l-3.4 0Z" fill="rgb(227,73,2)" fill-opacity="0.3"></path>
<path d="M451.6 271l3.4 0l0 -24.6l-3.4 0Z" fill="rgb(227,73,2)" fill-opacity="0.3"></path>
<path d="M456.5 271l3.4 0l0 -23.5l-3.4 0Z" fill="rgb(227,73,2)" fill-opacity="0.3"></path>
<path d="M461.4 271l3.4 0l0 -22.4l-3.4 0Z" fill="rgb(227,73,2)" fill-opacity="0.3"></path>
<path d="M466.3 271l3.4 0l0 -21.1l-3.4 0Z" fill="rgb(227,73,2)" fill-opacity="0.3"></path>
<path d="M471.2 271l3.4 0l0 -20.9l-3.4 0Z" fill="rgb(227,73,2)" fill-opacity="0.3"></path>
<path d="M476.1 271l3.4 0l0 -20.5l-3.4 0Z" fill="rgb(227,73,2)" fill-opacity="0.3"></path>
<path d="M481 271l3.4 0l0 -19.8l-3.4 0Z" fill="rgb(227,73,2)" fill-opacity="0.3"></path>
<path d="M485.9 271l3.4 0l0 -19.2l-3.4 0Z" fill="rgb(227,73,2)" fill-opacity="0.3"></path>
<path d="M490.9 271l3.4 0l0 -18.5l-3.4 0Z" fill="rgb(227,73,2)" fill-opacity="0.3"></path>
<path d="M495.8 271l3.4 0l0 -18l-3.4 0Z" fill="rgb(227,73,2)" fill-opacity="0.3"></path>
<path d="M500.7 271l3.4 0l0 -17l-3.4 0Z" fill="rgb(227,73,2)" fill-opacity="0.3"></path>
<path d="M505.6 271l3.4 0l0 -16.7l-3.4 0Z" fill="rgb(227,73,2)" fill-opacity="0.8"></path>
<path d="M510.5 271l3.4 0l0 -16.1l-3.4 0Z" fill="rgb(227,73,2)" fill-opacity="0.3"></path>
<path d="M515.4 271l3.4 0l0 -15.5l-3.4 0Z" fill="rgb(227,73,2)" fill-opacity="0.3"></path>
<path d="M520.3 271l3.4 0l0 -15l-3.4 0Z" fill="rgb(227,73,2)" fill-opacity="0.3"></path>
<path d="M525.2 271l3.4 0l0 -14.1l-3.4 0Z" fill="rgb(227,73,2)" fill-opacity="0.3"></path>
<path d="M530.1 271l3.4 0l0 -13.7l-3.4 0Z" fill="rgb(227,73,2)" fill-opacity="0.3"></path>
<path d="M535 271l3.4 0l0 -13.5l-3.4 0Z" fill="rgb(227,73,2)" fill-opacity="0.3"></path>
<path d="M539.9 271l3.4 0l0 -13.1l-3.4 0Z" fill="rgb(227,73,2)" fill-opacity="0.3"></path>
<path d="M544.8 271l3.4 0l0 -13l-3.4 0Z" fill="rgb(227,73,2)" fill-opacity="0.3"></path>
<path d="M549.7 271l3.4 0l0 -12.4l-3.4 0Z" fill="rgb(227,73,2)" fill-opacity="0.3"></path>
<path d="M554.6 271l3.4 0l0 -11.8l-3.4 0Z" fill="rgb(227,73,2)" fill-opacity="0.3"></path>
<path d="M559.5 271l3.4 0l0 -11.3l-3.4 0Z" fill="rgb(227,73,2)" fill-opacity="0.3"></path>
<path d="M564.4 271l3.4 0l0 -10.6l-3.4 0Z" fill="rgb(227,73,2)" fill-opacity="0.3"></path>
<path d="M569.3 271l3.4 0l0 -10.2l-3.4 0Z" fill="rgb(227,73,2)" fill-opacity="0.3"></path>
<path d="M574.2 271l3.4 0l0 -10l-3.4 0Z" fill="rgb(227,73,2)" fill-opacity="0.3"></path>
<path d="M579.2 271l3.4 0l0 -9.6l-3.4 0Z" fill="rgb(227,73,2)" fill-opacity="0.3"></path>
<path d="M584.1 271l3.4 0l0 -9.1l-3.4 0Z" fill="rgb(227,73,2)" fill-opacity="0.3"></path>
<path d="M589 271l3.4 0l0 -8.7l-3.4 0Z" fill="rgb(227,73,2)" fill-opacity="0.3"></path>
<path d="M593.9 271l3.4 0l0 -8.5l-3.4 0Z" fill="rgb(227,73,2)" fill-opacity="0.3"></path>
<path d="M598.8 271l3.4 0l0 -8.5l-3.4 0Z" fill="rgb(227,73,2)" fill-opacity="0.3"></path>
<path d="M603.7 271l3.4 0l0 -8.3l-3.4 0Z" fill="rgb(227,73,2)" fill-opacity="0.3"></path>
<path d="M608.6 271l3.4 0l0 -7.8l-3.4 0Z" fill="rgb(227,73,2)" fill-opacity="0.3"></path>
<path d="M613.5 271l3.4 0l0 -7.8l-3.4 0Z" fill="rgb(227,73,2)" fill-opacity="0.3"></path>
<path d="M618.4 271l3.4 0l0 -7.8l-3.4 0Z" fill="rgb(227,73,2)" fill-opacity="0.3"></path>
<path d="M623.3 271l3.4 0l0 -7.4l-3.4 0Z" fill="rgb(227,73,2)" fill-opacity="0.3"></path>
<path d="M628.2 271l3.4 0l0 -7.2l-3.4 0Z" fill="rgb(227,73,2)" fill-opacity="0.3"></path>
<path d="M633.1 271l3.4 0l0 -7.2l-3.4 0Z" fill="rgb(227,73,2)" fill-opacity="0.3"></path>
<path d="M638 271l3.4 0l0 -7l-3.4 0Z" fill="rgb(227,73,2)" fill-opacity="0.3"></path>
<path d="M642.9 271l3.4 0l0 -6.5l-3.4 0Z" fill="rgb(227,73,2)" fill-opacity="0.3"></path>
<path d="M647.8 271l3.4 0l0 -5.7l-3.4 0Z" fill="rgb(227,73,2)" fill-opacity="0.3"></path>
<path d="M652.7 271l3.4 0l0 -5.6l-3.4 0Z" fill="rgb(227,73,2)" fill-opacity="0.3"></path>
<path d="M657.6 271l3.4 0l0 -5.6l-3.4 0Z" fill="rgb(227,73,2)" fill-opacity="0.3"></path>
<path d="M662.5 271l3.4 0l0 -5.6l-3.4 0Z" fill="rgb(227,73,2)" fill-opacity="0.3"></path>
<path d="M667.4 271l3.4 0l0 -5.6l-3.4 0Z" fill="rgb(227,73,2)" fill-opacity="0.3"></path>
<path d="M672.4 271l3.4 0l0 -5.6l-3.4 0Z" fill="rgb(227,73,2)" fill-opacity="0.3"></path>
<path d="M677.3 271l3.4 0l0 -5.6l-3.4 0Z" fill="rgb(227,73,2)" fill-opacity="0.3"></path>
<path d="M682.2 271l3.4 0l0 -5.6l-3.4 0Z" fill="rgb(227,73,2)" fill-opacity="0.3"></path>
<path d="M687.1 271l3.4 0l0 -5.4l-3.4 0Z" fill="rgb(227,73,2)" fill-opacity="0.3"></path>
<path d="M692 271l3.4 0l0 -5.2l-3.4 0Z" fill="rgb(227,73,2)" fill-opacity="0.3"></path>
<path d="M696.9 271l3.4 0l0 -5l-3.4 0Z" fill="rgb(227,73,2)" fill-opacity="0.3"></path>
<path d="M701.8 271l3.4 0l0 -5l-3.4 0Z" fill="rgb(227,73,2)" fill-opacity="0.3"></path>
<path d="M706.7 271l3.4 0l0 -4.6l-3.4 0Z" fill="rgb(227,73,2)" fill-opacity="0.3"></path>
<path d="M711.6 271l3.4 0l0 -4.3l-3.4 0Z" fill="rgb(227,73,2)" fill-opacity="0.3"></path>
<path d="M716.5 271l3.4 0l0 -3.7l-3.4 0Z" fill="rgb(227,73,2)" fill-opacity="0.3"></path>
<path d="M721.4 271l3.4 0l0 -3.3l-3.4 0Z" fill="rgb(227,73,2)" fill-opacity="0.3"></path>
<path d="M726.3 271l3.4 0l0 -3.1l-3.4 0Z" fill="rgb(227,73,2)" fill-opacity="0.3"></path>
<path d="M731.2 271l3.4 0l0 -3l-3.4 0Z" fill="rgb(227,73,2)" fill-opacity="0.3"></path>
<path d="M736.1 271l3.4 0l0 -2.8l-3.4 0Z" fill="rgb(227,73,2)" fill-opacity="0.3"></path>
<path d="M741 271l3.4 0l0 -2.6l-3.4 0Z" fill="rgb(227,73,2)" fill-opacity="0.3"></path>
<path d="M745.9 271l3.4 0l0 -2.4l-3.4 0Z" fill="rgb(227,73,2)" fill-opacity="0.3"></path>
<path d="M750.8 271l3.4 0l0 -2.2l-3.4 0Z" fill="rgb(227,73,2)" fill-opacity="0.3"></path>
<path d="M755.7 271l3.4 0l0 -2.2l-3.4 0Z" fill="rgb(227,73,2)" fill-opacity="0.3"></path>
<path d="M760.6 271l3.4 0l0 -1.9l-3.4 0Z" fill="rgb(227,73,2)" fill-opacity="0.3"></path>
<path d="M765.6 271l3.4 0l0 -1.9l-3.4 0Z" fill="rgb(227,73,2)" fill-opacity="0.3"></path>
<path d="M770.5 271l3.4 0l0 -1.9l-3.4 0Z" fill="rgb(227,73,2)" fill-opacity="0.3"></path>
<path d="M775.4 271l3.4 0l0 -1.7l-3.4 0Z" fill="rgb(227,73,2)" fill-opacity="0.3"></path>
<path d="M780.3 271l3.4 0l0 -1.5l-3.4 0Z" fill="rgb(227,73,2)" fill-opacity="0.3"></path>
<path d="M785.2 271l3.4 0l0 -1.3l-3.4 0Z" fill="rgb(227,73,2)" fill-opacity="0.3"></path>
<path d="M790.1 271l3.4 0l0 -1.3l-3.4 0Z" fill="rgb(227,73,2)" fill-opacity="0.3"></path>
<path d="M795 271l3.4 0l0 -1.3l-3.4 0Z" fill="rgb(227,73,2)" fill-opacity="0.3"></path>
<path d="M799.9 271l3.4 0l0 -1.1l-3.4 0Z" fill="rgb(227,73,2)" fill-opacity="0.3"></path>
<path d="M804.8 271l3.4 0l0 -1.1l-3.4 0Z" fill="rgb(227,73,2)" fill-opacity="0.3"></path>
<path d="M809.7 271l3.4 0l0 -1.1l-3.4 0Z" fill="rgb(227,73,2)" fill-opacity="0.3"></path>
<path d="M814.6 271l3.4 0l0 -1.1l-3.4 0Z" fill="rgb(227,73,2)" fill-opacity="0.3"></path>
<path d="M819.5 271l3.4 0l0 -1.1l-3.4 0Z" fill="rgb(227,73,2)" fill-opacity="0.3"></path>
<path d="M824.4 271l3.4 0l0 -1.1l-3.4 0Z" fill="rgb(227,73,2)" fill-opacity="0.3"></path>
<path d="M829.3 271l3.4 0l0 -0.9l-3.4 0Z" fill="rgb(227,73,2)" fill-opacity="0.3"></path>
<path d="M834.2 271l3.4 0l0 -0.9l-3.4 0Z" fill="rgb(227,73,2)" fill-opacity="0.3"></path>
<path d="M839.1 271l3.4 0l0 -0.9l-3.4 0Z" fill="rgb(227,73,2)" fill-opacity="0.3"></path>
<path d="M844 271l3.4 0l0 -0.9l-3.4 0Z" fill="rgb(227,73,2)" fill-opacity="0.3"></path>
<path d="M848.9 271l3.4 0l0 -0.9l-3.4 0Z" fill="rgb(227,73,2)" fill-opacity="0.3"></path>
<path d="M853.8 271l3.4 0l0 -0.9l-3.4 0Z" fill="rgb(227,73,2)" fill-opacity="0.3"></path>
<path d="M858.8 271l3.4 0l0 -0.9l-3.4 0Z" fill="rgb(227,73,2)" fill-opacity="0.3"></path>
<path d="M863.7 271l3.4 0l0 -0.9l-3.4 0Z" fill="rgb(227,73,2)" fill-opacity="0.3"></path>
<path d="M868.6 271l3.4 0l0 -0.9l-3.4 0Z" fill="rgb(227,73,2)" fill-opacity="0.3"></path>
<path d="M873.5 271l3.4 0l0 -0.7l-3.4 0Z" fill="rgb(227,73,2)" fill-opacity="0.3"></path>
<path d="M878.4 271l3.4 0l0 -0.7l-3.4 0Z" fill="rgb(227,73,2)" fill-opacity="0.3"></path>
<path d="M883.3 271l3.4 0l0 -0.7l-3.4 0Z" fill="rgb(227,73,2)" fill-opacity="0.3"></path>
<path d="M888.2 271l3.4 0l0 -0.6l-3.4 0Z" fill="rgb(227,73,2)" fill-opacity="0.3"></path>
<path d="M893.1 271l3.4 0l0 -0.4l-3.4 0Z" fill="rgb(227,73,2)" fill-opacity="0.3"></path>
<path d="M898 271l3.4 0l0 -0.4l-3.4 0Z" fill="rgb(227,73,2)" fill-opacity="0.3"></path>
<path d="M902.9 271l3.4 0l0 -0.4l-3.4 0Z" fill="rgb(227,73,2)" fill-opacity="0.3"></path>
<path d="M907.8 271l3.4 0l0 -0.4l-3.4 0Z" fill="rgb(227,73,2)" fill-opacity="0.3"></path>
<path d="M912.7 271l3.4 0l0 -0.2l-3.4 0Z" fill="rgb(227,73,2)" fill-opacity="0.3"></path>
<path d="M917.6 271l3.4 0l0 0l-3.4 0Z" fill="rgb(227,73,2)" fill-opacity="0.3"></path>
<path d="M-5 -5l226.9 0l0 24l-226.9 0Z" transform="translate(391.54 5)" fill="rgb(0,0,0)" fill-opacity="0" stroke="#ccc" stroke-width="0"></path>
<path d="M3.5 0L21.5 0A3.5 3.5 0 0 1 25 3.5L25 10.5A3.5 3.5 0 0 1 21.5 14L3.5 14A3.5 3.5 0 0 1 0 10.5L0 3.5A3.5 3.5 0 0 1 3.5 0" transform="translate(391.54 5)" fill="rgb(227,73,2)" fill-opacity="0.3"></path>
<text dominant-baseline="central" text-anchor="start" style="font-size:12px;font-family:sans-serif;" xml:space="preserve" x="30" y="7" transform="translate(391.54 5)" fill="#333">Times completed</text>
<path d="M0 7L25 7" transform="translate(524.1 5)" fill="#000" stroke="#E34902" stroke-width="2" stroke-linecap="butt" stroke-miterlimit="10"></path>
<path d="M18.1 7A5.6 5.6 0 1 1 18.1 6.4A5.6 5.6 0 0 1 18.1 7" transform="translate(524.1 5)" fill="#fff" stroke="#E34902" stroke-width="2" stroke-linecap="butt" stroke-miterlimit="10"></path>
<text dominant-baseline="central" text-anchor="start" style="font-size:12px;font-family:sans-serif;" x="30" y="7" transform="translate(524.1 5)" fill="#333">Eddington</text>
<path d="M-0.54 -0.89A0.6 0.6 0 1 1 0.54 -0.89C0.39 -0.56 0 -0.42 0 0C0 -0.42 -0.39 -0.56 -0.54 -0.89Z" transform="matrix(25,0,0,25,507.2632,249.5272)" fill="rgb(227,73,2)" fill-opacity="0.8"></path>
<text dominant-baseline="central" text-anchor="middle" style="font-size:12px;font-family:sans-serif;" transform="translate(507.2632 223.3843)" fill="#eee" stroke="rgb(227,73,2)" stroke-width="2" paint-order="stroke" stroke-opacity="0.8" stroke-miterlimit="2">90</text>
<g clip-path="url(#zr0-c0)">
<path d="M70.7 270.8L75.6 270.6L80.5 270.4L85.4 270.3L90.3 270.1L95.2 269.9L100.1 269.7L105 269.5L109.9 269.3L114.8 269.1L119.7 269L124.7 268.8L129.6 268.6L134.5 268.4L139.4 268.2L144.3 268L149.2 267.9L154.1 267.7L159 267.5L163.9 267.3L168.8 267.1L173.7 266.9L178.6 266.7L183.5 266.6L188.4 266.4L193.3 266.2L198.2 266L203.1 265.8L208 265.6L212.9 265.4L217.9 265.3L222.8 265.1L227.7 264.9L232.6 264.7L237.5 264.5L242.4 264.3L247.3 264.2L252.2 264L257.1 263.8L262 263.6L266.9 263.4L271.8 263.2L276.7 263L281.6 262.9L286.5 262.7L291.4 262.5L296.3 262.3L301.2 262.1L306.1 261.9L311.1 261.7L316 261.6L320.9 261.4L325.8 261.2L330.7 261L335.6 260.8L340.5 260.6L345.4 260.5L350.3 260.3L355.2 260.1L360.1 259.9L365 259.7L369.9 259.5L374.8 259.3L379.7 259.2L384.6 259L389.5 258.8L394.4 258.6L399.3 258.4L404.3 258.2L409.2 258L414.1 257.9L419 257.7L423.9 257.5L428.8 257.3L433.7 257.1L438.6 256.9L443.5 256.7L448.4 256.6L453.3 256.4L458.2 256.2L463.1 256L468 255.8L472.9 255.6L477.8 255.5L482.7 255.3L487.6 255.1L492.5 254.9L497.5 254.7L502.4 254.5L507.3 254.3L512.2 254.2L517.1 254L522 253.8L526.9 253.6L531.8 253.4L536.7 253.2L541.6 253L546.5 252.9L551.4 252.7L556.3 252.5L561.2 252.3L566.1 252.1L571 251.9L575.9 251.8L580.8 251.6L585.7 251.4L590.7 251.2L595.6 251L600.5 250.8L605.4 250.6L610.3 250.5L615.2 250.3L620.1 250.1L625 249.9L629.9 249.7L634.8 249.5L639.7 249.3L644.6 249.2L649.5 249L654.4 248.8L659.3 248.6L664.2 248.4L669.1 248.2L674 248L678.9 247.9L683.9 247.7L688.8 247.5L693.7 247.3L698.6 247.1L703.5 246.9L708.4 246.8L713.3 246.6L718.2 246.4L723.1 246.2L728 246L732.9 245.8L737.8 245.6L742.7 245.5L747.6 245.3L752.5 245.1L757.4 244.9L762.3 244.7L767.2 244.5L772.1 244.3L777.1 244.2L782 244L786.9 243.8L791.8 243.6L796.7 243.4L801.6 243.2L806.5 243.1L811.4 242.9L816.3 242.7L821.2 242.5L826.1 242.3L831 242.1L835.9 241.9L840.8 241.8L845.7 241.6L850.6 241.4L855.5 241.2L860.4 241L865.3 240.8L870.3 240.6L875.2 240.5L880.1 240.3L885 240.1L889.9 239.9L894.8 239.7L899.7 239.5L904.6 239.4L909.5 239.2L914.4 239L919.3 238.8" fill="none" stroke="#E34902" stroke-width="2" stroke-linejoin="bevel"></path>
</g>
<defs >
<clipPath id="zr0-c0">
<path d="M67 59l856 0l0 213l-856 0Z" fill="#000"></path>
</clipPath>
</defs>
</svg>